{
.appVersion = "3151";
.formatVersion = 3;
DisplayStrings = (
"ÁÁĂĂÂÂÄÄÀÀĀĀĄĄÅÅǺǺÃÃǼǼĆĆČČÇÇĈĈĊĊĎĎĐĐÉÉĔĔĚĚÊÊËËĖĖÈÈĒĒĘĘĞĞĜĜĠĠĦĦĤĤÍÍĬĬÎÎÏÏİİÌÌĪĪĮĮĨĨĴĴĹĹĽĽŃŃŇŇÑÑÓÓŎŎÔÔÖÖÒÒŐŐŌŌǾǾÕÕŔŔŘŘŚŚŠŠŞŞŜŜŦŦŤŤÚÚŬŬÛÛÜÜÙÙŰŰŪŪŲŲŮŮŨŨẂẂŴŴẄẄẀẀÝÝŶŶŸŸỲỲŹŹŽŽŻŻŢŢááăăââääààāāąąååǻǻããǽǽććččççĉĉċċďďđđééĕĕěěêêëëėėèèēēęęğğĝĝġġħħĥĥííĭĭîîïïììīīįįĩĩĵĵĺĺľľŀńńŉŉňňññóóŏŏôôööòòőőōōǿǿõõŕŕřřśśššşşŝŝŧŧťťúúŭŭûûüüùùűűūūţţųųůůũũẃẃŵŵẅẅẁẁýýŷŷÿÿỳỳźźžžżż½½¼¼¾¾%%‰‰"
);
classes = (
{
automatic = 1;
code = "A Aacute Abreve Acircumflex Adieresis Agrave Amacron Aogonek Aring Aringacute Atilde AE AEacute B C Cacute Ccaron Ccedilla Ccircumflex Cdotaccent D Eth Dcaron Dcroat E Eacute Ebreve Ecaron Ecircumflex Edieresis Edotaccent Egrave Emacron Eogonek F G Gbreve Gcircumflex Gdotaccent H Hbar Hcircumflex I IJ Iacute Ibreve Icircumflex Idieresis Idotaccent Igrave Imacron Iogonek Itilde J Jcircumflex K L Lacute Lcaron Ldot Lslash M N Nacute Ncaron Ntilde Eng O Oacute Obreve Ocircumflex Odieresis Ograve Ohungarumlaut Omacron Oslash Oslashacute Otilde OE P Thorn Q R Racute Rcaron S Sacute Scaron Scedilla Scircumflex T Tbar Tcaron U Uacute Ubreve Ucircumflex Udieresis Ugrave Uhungarumlaut Umacron Uogonek Uring Utilde V W Wacute Wcircumflex Wdieresis Wgrave X Y Yacute Ycircumflex Ydieresis Ygrave Z Zacute Zcaron Zdotaccent uni0122 uni0136 uni013B uni0145 uni0156 uni0162 uni0218 uni021A uni0394 uni03A9";
name = Uppercase;
}
);
customParameters = (
{
name = fsType;
value = (
);
},
{
name = "Use Typo Metrics";
value = 1;
}
);
date = "2023-02-17 13:47:15 +0000";
familyName = Unlock;
featurePrefixes = (
{
automatic = 1;
code = "languagesystem DFLT dflt;

languagesystem latn dflt;
languagesystem latn CAT;
";
name = Languagesystems;
}
);
features = (
{
automatic = 1;
code = "feature locl;
feature subs;
feature sinf;
feature sups;
feature frac;
feature ordn;
feature case;
feature salt;
";
tag = aalt;
},
{
automatic = 1;
code = "lookup ccmp_latn_1 {
	sub fi by f i;
	sub fl by f l;
} ccmp_latn_1;

script latn;
lookup ccmp_latn_1;
";

glyphs = (
{
glyphname = A;
layers = (
{
layerId = master01;
shapes = (
{
closed = 1;
nodes = (
(103,597,l),
(16,38,l),
(-25,38,l),
(-25,0,l),
(627,0,l),
(627,38,l),
(585,38,l),
(493,635,l),
(41,635,l),
(41,597,l)
);
},
{
closed = 1;
nodes = (
(285,575,l),
(318,205,l),
(196,205,l),
(196,575,l,{
name = hr01;
})
);
},
{
closed = 1;
nodes = (
(196,150,l),
(323,150,l),
(337,0,l),
(196,0,l)
);
}
);
width = 602;
}
);
unicode = 65;
},
{
glyphname = AE;
layers = (
{
layerId = master01;
shapes = (
{
closed = 1;
nodes = (
(197,597,l),
(22,38,l),
(-25,38,l),
(-25,0,l),
(196,0,l),
(245,284,l),
(389,284,l),
(389,38,l),
(345,38,l),
(345,0,l),
(851,0,l),
(851,214,l),
(734,214,l),
(693,60,l,{
name = hr01;
}),
(604,60,l),
(604,284,l),
(795,284,l),
(795,339,l),
(604,339,l),
(604,575,l),
(693,575,l),
(734,421,l),
(851,421,l),
(851,635,l,{
name = hr02;
}),
(141,635,l),
(141,597,l)
);
},
{
closed = 1;
nodes = (
(389,575,l),
(389,339,l),
(255,339,l),
(296,575,l,{
name = hr03;
})
);
}
);
width = 886;
}
);
unicode = 198;
},
{
glyphname = B;
layers = (
{
layerId = master01;
shapes = (
{
closed = 1;
nodes = (
(639,258,o),
(572,298,o),
(485,314,c),
(485,322,l),
(568,338,o),
(629,378,o),
(629,473,cs),
(629,635,o),
(499,635,o),
(354,635,cs),
(30,635,l),
(30,597,l,{
name = hr01;
}),
(74,597,l),
(74,38,l),
(30,38,l),
(30,0,l),
(364,0,ls),
(509,0,o),
(639,0,o),
(639,162,cs)
);
},
{
closed = 1;
nodes = (
(424,579,l),
(424,345,l),
(289,345,l),
(289,579,l,{
name = hr02;
})
);
},
{
closed = 1;
nodes = (
(289,60,l),
(289,290,l),
(424,290,l),
(424,60,l)
);
}
);
width = 654;
}
);
unicode = 66;
},
{
glyphname = C;
layers = (
{
layerId = master01;
shapes = (
{
closed = 1;
nodes = (
(235,57,l),
(235,579,l),
(365,579,l),
(365,389,l),
(580,389,l),
(580,408,ls),
(580,632,o),
(468,650,o),
(308,650,cs),
(157,650,o),
(20,650,o),
(20,374,cs),
(20,262,ls),
(20,-15,o),
(146,-15,o),
(286,-15,cs),
(458,-15,o),
(580,3,o),
(580,227,cs),
(580,239,l),
(365,239,l),
(365,57,l,{
name = hr00;
})
);
}
);
width = 590;
}
);
unicode = 67;
},
{
glyphname = D;
layers = (
{
layerId = master01;
shapes = (
{
closed = 1;
nodes = (
(524,0,o),
(654,1,o),
(654,277,cs),
(654,359,ls),
(654,635,o),
(524,635,o),
(379,635,cs),
(30,635,l),
(30,597,l,{
name = hr01;
}),
(74,597,l),
(74,38,l),
(30,38,l),
(30,0,l),
(379,0,ls)
);
},
{
closed = 1;
nodes = (
(289,60,l),
(289,579,l),
(439,579,l),
(439,60,l,{
name = hr02;
})
);
}
);
width = 674;
}
);
unicode = 68;
},
{
glyphname = Eth;
layers = (
{
layerId = master01;
shapes = (
{
closed = 1;
nodes = (
(363,286,l),
(363,348,l),
(27,348,l),
(27,286,l)
);
},
{
closed = 1;
nodes = (
(363,286,l),
(363,348,l),
(27,348,l),
(27,286,l)
);
},
{
ref = D;
},
{
pos = (26,0);
ref = barra;
}
);
width = 674;
}
);
unicode = 208;
},
{
glyphname = E;
layers = (
{
layerId = master01;
shapes = (
{
closed = 1;
nodes = (
(536,0,l),
(536,214,l),
(419,214,l),
(378,60,l),
(289,60,l),
(289,284,l),
(480,284,l),
(480,339,l),
(289,339,l),
(289,575,l),
(378,575,l),
(419,421,l),
(536,421,l),
(536,635,l),
(30,635,l),
(30,597,l,{
name = hr01;
}),
(74,597,l),
(74,38,l),
(30,38,l),
(30,0,l)
);
}
);
width = 571;
}
);
unicode = 69;
},
{
glyphname = F;
layers = (
{
layerId = master01;
shapes = (
{
closed = 1;
nodes = (
(470,339,l),
(289,339,l),
(289,575,l),
(368,575,l),
(409,421,l),
(526,421,l),
(526,635,l),
(30,635,l),
(30,597,l,{
name = hr01;
}),
(74,597,l),
(74,38,l),
(30,38,l),
(30,0,l),
(413,0,l),
(413,38,l),
(289,38,l),
(289,284,l),
(470,284,l)
);
}
);
width = 546;
}
);
unicode = 70;
},
{
glyphname = G;
layers = (
{
layerId = master01;
shapes = (
{
closed = 1;
nodes = (
(350,-15,o),
(403,-4,o),
(435,76,c),
(446,76,l),
(475,0,l,{
name = hr01;
}),
(590,0,l),
(590,310,l),
(305,310,l),
(305,255,l),
(375,255,l),
(375,76,l,{
name = hr02;
}),
(235,76,l),
(235,579,l),
(375,579,l),
(375,389,l),
(590,389,l),
(590,408,ls),
(590,632,o),
(474,650,o),
(309,650,cs),
(157,650,o),
(20,650,o),
(20,374,cs),
(20,262,ls),
(20,-15,o),
(146,-15,o),
(286,-15,cs)
);
}
);
width = 620;
}
);
unicode = 71;
},
{
glyphname = H;
layers = (
{
layerId = master01;
shapes = (
{
closed = 1;
nodes = (
(289,284,l),
(439,284,l),
(439,0,l),
(698,0,l),
(698,38,l),
(654,38,l),
(654,597,l),
(698,597,l),
(698,635,l),
(439,635,l),
(439,339,l),
(289,339,l),
(289,635,l),
(30,635,l),
(30,597,l),
(74,597,l),
(74,38,l),
(30,38,l),
(30,0,l),
(289,0,l,{
name = hr00;
})
);
}
);
width = 728;
}
);
unicode = 72;
},
{
glyphname = I;
layers = (
{
layerId = master01;
shapes = (
{
closed = 1;
nodes = (
(342,635,l),
(39,635,l),
(39,597,l),
(83,597,l),
(83,38,l),
(39,38,l),
(39,0,l),
(342,0,l),
(342,38,l),
(298,38,l),
(298,597,l),
(342,597,l,{
name = hr00;
})
);
}
);
width = 381;
}
);
unicode = 73;
},
{
glyphname = J;
layers = (
{
layerId = master01;
shapes = (
{
closed = 1;
nodes = (
(119,249,ls),
(135,249,o),
(149,249,o),
(149,223,cs,{
name = hr01;
}),
(149,170,l),
(22,170,l),
(-1,0,l),
(21,-6,o),
(52,-15,o),
(118,-15,cs),
(217,-15,o),
(298,23,o),
(298,205,cs),
(298,597,l),
(342,597,l),
(342,635,l),
(19,635,l),
(19,597,l),
(83,597,l,{
name = hr02;
}),
(83,249,l)
);
}
);
width = 351;
}
);
unicode = 74;
},
{
glyphname = K;
layers = (
{
layerId = master01;
shapes = (
{
closed = 1;
nodes = (
(499,326,o),
(527,340,o),
(540,385,cs),
(604,597,l),
(656,597,l),
(656,635,l),
(419,635,l),
(362,339,l),
(289,339,l),
(289,635,l),
(30,635,l),
(30,597,l),
(74,597,l),
(74,38,l),
(30,38,l),
(30,0,l),
(289,0,l),
(289,284,l),
(359,284,l),
(419,0,l),
(666,0,l),
(666,38,l),
(609,38,l),
(569,242,ls),
(560,287,o),
(551,299,o),
(505,299,cs),
(460,299,l),
(460,322,l,{
name = hr00;
})
);
}
);
width = 671;
}
);
unicode = 75;
},
{
glyphname = L;
layers = (
{
layerId = master01;
shapes = (
{
closed = 1;
nodes = (
(409,214,l),
(368,60,l),
(289,60,l),
(289,597,l),
(333,597,l),
(333,635,l),
(30,635,l),
(30,597,l),
(74,597,l),
(74,38,l,{
name = hr01;
}),
(30,38,l),
(30,0,l),
(526,0,l),
(526,214,l)
);
}
);
width = 531;
}
);
unicode = 76;
},
{
glyphname = Lslash;
layers = (
{
layerId = master01;
shapes = (
{
closed = 1;
nodes = (
(410,409,l),
(410,471,l),
(17,299,l),
(17,237,l,{
name = hr00;
})
);
},
{
ref = L;
}
);
width = 531;
}
);
unicode = 321;
},
{
glyphname = M;
layers = (
{
layerId = master01;
shapes = (
{
closed = 1;
nodes = (
(74,597,l),
(74,38,l),
(30,38,l),
(30,0,l),
(233,0,l),
(152,575,l,{
name = hr01;
}),
(193,575,l),
(322,0,l),
(452,0,l),
(611,575,l),
(652,575,l),
(541,0,l),
(815,0,l),
(815,38,l),
(771,38,l),
(771,597,l,{
name = hr02;
}),
(815,597,l),
(815,635,l),
(547,635,l),
(478,388,l),
(459,388,l),
(404,635,l),
(30,635,l),
(30,597,l)
);
}
);
width = 845;
}
);
unicode = 77;
},
{
glyphname = N;
layers = (
{
layerId = master01;
shapes = (
{
closed = 1;
nodes = (
(74,597,l),
(74,38,l),
(30,38,l),
(30,0,l),
(221,0,l),
(152,575,l,{
name = hr01;
}),
(193,575,l),
(322,0,l),
(663,0,l),
(663,597,l,{
name = hr02;
}),
(707,597,l),
(707,635,l),
(516,635,l),
(597,60,l),
(556,60,l),
(415,635,l),
(30,635,l),
(30,597,l)
);
}
);
width = 727;
}
);
unicode = 78;
},
{
glyphname = Eng;
layers = (
{
layerId = master01;
shapes = (
{
closed = 1;
nodes = (
(74,597,l),
(74,38,l),
(30,38,l),
(30,0,l),
(221,0,l),
(152,575,l,{
name = hr01;
}),
(193,575,l),
(333,0,l),
(509,0,ls),
(525,0,o),
(539,0,o),
(539,-26,cs),
(539,-79,l),
(411,-79,l),
(397,-187,l),
(425,-193,o),
(453,-195,o),
(481,-195,cs),
(600,-195,o),
(663,-146,o),
(663,-29,cs),
(663,597,l,{
name = hr02;
}),
(707,597,l),
(707,635,l),
(516,635,l),
(597,109,l),
(556,109,l),
(415,635,l),
(30,635,l),
(30,597,l)
);
}
);
width = 727;
}
);
unicode = 330;
},
{
glyphname = O;
layers = (
{
layerId = master01;
shapes = (
{
closed = 1;
nodes = (
(600,650,o),
(470,650,o),
(325,650,cs),
(165,650,o),
(20,650,o),
(20,374,cs),
(20,262,ls),
(20,-15,o),
(150,-15,o),
(295,-15,cs),
(456,-15,o),
(600,-15,o),
(600,262,cs),
(600,374,ls,{
name = hr00;
})
);
},
{
closed = 1;
nodes = (
(235,57,l),
(235,579,l),
(385,579,l),
(385,57,l)
);
}
);
width = 620;
}
);
unicode = 79;
},
{
glyphname = OE;
layers = (
{
layerId = master01;
shapes = (
{
closed = 1;
nodes = (
(847,214,l),
(730,214,l),
(689,60,l),
(600,60,l),
(600,284,l),
(791,284,l),
(791,339,l),
(600,339,l),
(600,575,l),
(689,575,l),
(730,421,l),
(847,421,l),
(847,635,l),
(325,635,ls),
(165,635,o),
(20,635,o),
(20,374,cs),
(20,262,ls),
(20,0,o),
(150,0,o),
(295,0,cs),
(847,0,l,{
name = hr00;
})
);
},
{
closed = 1;
nodes = (
(235,60,l),
(235,575,l),
(385,575,l),
(385,60,l)
);
}
);
width = 882;
}
);
unicode = 338;
},
{
glyphname = P;
layers = (
{
layerId = master01;
shapes = (
{
closed = 1;
nodes = (
(289,215,l),
(289,565,l),
(439,565,l),
(439,215,l)
);
},
{
closed = 1;
nodes = (
(413,38,l),
(289,38,l),
(289,143,l),
(379,143,ls),
(524,143,o),
(654,144,o),
(654,390,cs),
(654,634,o),
(526,635,o),
(382,635,cs),
(30,635,l),
(30,597,l,{
name = hr01;
}),
(74,597,l),
(74,38,l),
(30,38,l),
(30,0,l),
(413,0,l)
);
}
);
width = 669;
}
);
unicode = 80;
},
{
glyphname = Thorn;
layers = (
{
layerId = master01;
shapes = (
{
closed = 1;
nodes = (
(654,583,o),
(526,584,o),
(382,584,cs),
(289,584,l),
(289,635,l),
(30,635,l),
(30,597,l),
(74,597,l),
(74,38,l),
(30,38,l),
(30,0,l),
(333,0,l),
(333,38,l),
(289,38,l),
(289,92,l),
(379,92,ls),
(524,92,o),
(654,93,o),
(654,339,cs,{
name = hr00;
})
);
},
{
closed = 1;
nodes = (
(289,164,l),
(289,514,l),
(439,514,l),
(439,164,l)
);
}
);
width = 669;
}
);
unicode = 222;
},
{
glyphname = Q;
layers = (
{
layerId = master01;
shapes = (
{
closed = 1;
nodes = (
(531,-127,l),
(424,-127,l),
(400,-15,ls),
(512,-15,o),
(600,49,o),
(600,257,cs),
(600,374,ls),
(600,650,o),
(470,650,o),
(325,650,cs),
(165,650,o),
(20,650,o),
(20,374,cs),
(20,257,ls),
(20,49,o),
(108,-15,o),
(220,-15,cs),
(252,-165,l),
(531,-165,l,{
name = hr00;
})
);
},
{
closed = 1;
nodes = (
(235,54,l),
(235,579,l),
(385,579,l),
(385,54,l)
);
}
);
width = 620;
}
);
unicode = 81;
},
{
glyphname = R;
layers = (
{
layerId = master01;
shapes = (
{
closed = 1;
nodes = (
(289,210,l),
(439,210,l),
(439,0,l),
(686,0,l),
(686,38,l),
(633,38,l),
(616,180,ls),
(611,226,o),
(598,240,o),
(552,240,cs),
(507,240,l),
(507,263,l),
(592,276,o),
(654,317,o),
(654,447,cs),
(654,634,o),
(526,635,o),
(382,635,cs),
(30,635,l),
(30,597,l,{
name = hr01;
}),
(74,597,l),
(74,38,l),
(30,38,l),
(30,0,l),
(289,0,l)
);
},
{
closed = 1;
nodes = (
(289,282,l),
(289,565,l,{
name = hr02;
}),
(439,565,l),
(439,282,l)
);
}
);
width = 676;
}
);
unicode = 82;
},
{
glyphname = S;
layers = (
{
layerId = master01;
shapes = (
{
closed = 1;
nodes = (
(410,-15,o),
(535,2,o),
(535,157,cs),
(535,250,o),
(505,303,o),
(449,344,cs),
(252,490,l),
(252,565,l),
(352,565,l),
(379,437,l),
(495,437,l),
(522,617,l),
(453,637,o),
(362,651,o),
(293,651,cs),
(153,651,o),
(29,634,o),
(29,479,cs),
(29,386,o),
(59,333,o),
(115,292,cs),
(312,146,l),
(312,71,l),
(201,71,l),
(170,199,l),
(42,199,l),
(15,19,l),
(90,-1,o),
(194,-15,o),
(271,-15,cs,{
name = hr00;
})
);
}
);
width = 555;
}
);
unicode = 83;
},
{
glyphname = T;
layers = (
{
layerId = master01;
shapes = (
{
closed = 1;
nodes = (
(5,635,l),
(5,421,l),
(122,421,l),
(147,565,l),
(204,565,l),
(182,397,l),
(182,38,l),
(98,38,l),
(98,0,l),
(481,0,l),
(481,38,l),
(397,38,l),
(397,397,l),
(375,565,l),
(432,565,l),
(457,427,l),
(574,427,l),
(574,635,l,{
name = hr00;
})
);
}
);
width = 579;
}
);
unicode = 84;
},
{
glyphname = U;
layers = (
{
layerId = master01;
shapes = (
{
closed = 1;
nodes = (
(274,635,l),
(10,635,l),
(10,597,l),
(54,597,l),
(54,234,ls),
(54,-15,o),
(187,-15,o),
(334,-15,cs),
(472,-15,o),
(594,-15,o),
(594,234,cs),
(594,597,l),
(638,597,l),
(638,635,l),
(424,635,l),
(424,57,l),
(274,57,l,{
name = hr00;
})
);
}
);
width = 648;
}
);
unicode = 85;
},
{
glyphname = V;
layers = (
{
layerId = master01;
shapes = (
{
closed = 1;
nodes = (
(431,635,l),
(431,60,l),
(342,60,l),
(290,635,l),
(0,635,l),
(0,597,l),
(42,597,l),
(134,0,l),
(496,0,l),
(610,597,l),
(652,597,l),
(652,635,l,{
name = hr00;
})
);
}
);
width = 652;
}
);
unicode = 86;
},
{
glyphname = W;
layers = (
{
layerId = master01;
shapes = (
{
closed = 1;
nodes = (
(552,0,l),
(797,0,l),
(912,597,l),
(955,597,l),
(955,635,l),
(717,635,l),
(717,60,l),
(637,60,l),
(584,635,l),
(422,635,l),
(422,60,l),
(342,60,l),
(288,635,l),
(0,635,l),
(0,597,l),
(44,597,l),
(134,0,l),
(473,0,l),
(508,182,l),
(552,182,l,{
name = hr00;
})
);
}
);
width = 955;
}
);
unicode = 87;
},
{
glyphname = X;
layers = (
{
layerId = master01;
shapes = (
{
closed = 1;
nodes = (
(415,376,l),
(356,376,l),
(293,635,l),
(0,635,l),
(0,597,l),
(44,597,l),
(129,324,l),
(11,0,l),
(225,0,l),
(225,260,l),
(284,260,l),
(347,0,l),
(640,0,l),
(640,38,l),
(597,38,l),
(510,313,l),
(629,635,l),
(415,635,l,{
name = hr00;
})
);
}
);
width = 640;
}
);
unicode = 88;
},
{
glyphname = Y;
layers = (
{
layerId = master01;
shapes = (
{
closed = 1;
nodes = (
(626,635,l),
(405,635,l),
(405,300,l),
(348,300,l),
(266,635,l),
(0,635,l),
(0,597,l),
(43,597,l),
(176,146,l),
(176,38,l),
(92,38,l),
(92,0,l),
(535,0,l),
(535,38,l),
(451,38,l),
(451,146,l),
(584,597,l),
(626,597,l,{
name = hr00;
})
);
}
);
width = 626;
}
);
unicode = 89;
},
{
glyphname = Z;
layers = (
{
layerId = master01;
shapes = (
{
closed = 1;
nodes = (
(269,84,l),
(554,569,l),
(522,636,l),
(35,636,l),
(47,421,l),
(165,421,l),
(195,552,l),
(302,552,l),
(-5,0,l),
(557,0,l),
(544,215,l),
(426,215,l),
(397,84,l,{
name = hr00;
})
);
}
);
width = 557;
}
);
unicode = 90;
},
{
glyphname = a;
layers = (
{
layerId = master01;
shapes = (
{
closed = 1;
nodes = (
(207,379,l),
(234,490,l),
(348,490,l),
(348,315,l),
(247,315,ls),
(135,315,o),
(35,296,o),
(35,150,cs),
(35,-15,o),
(154,-15,o),
(255,-15,cs),
(343,-15,o),
(374,-4,o),
(402,76,c),
(415,76,l),
(455,0,l,{
name = hr01;
}),
(578,0,l),
(578,38,l),
(538,38,l),
(538,415,ls),
(538,550,o),
(398,565,o),
(295,565,cs),
(226,565,o),
(136,553,o),
(68,535,c),
(92,379,l)
);
},
{
closed = 1;
nodes = (
(211,76,l),
(211,240,l),
(348,240,l),
(348,76,l,{
name = hr02;
})
);
}
);
width = 618;
}
);
unicode = 97;
},
{
glyphname = ae;
layers = (
{
layerId = master01;
shapes = (
{
closed = 1;
nodes = (
(538,235,l),
(619,235,ls),
(732,235,o),
(831,235,o),
(831,400,cs),
(831,565,o),
(732,565,o),
(619,565,cs),
(548,565,o),
(489,565,o),
(449,532,c),
(410,560,o),
(353,565,o),
(295,565,cs),
(226,565,o),
(136,553,o),
(68,535,c),
(92,379,l),
(207,379,l),
(234,490,l),
(348,490,l),
(348,315,l),
(247,315,ls),
(135,315,o),
(35,296,o),
(35,150,cs),
(35,-15,o),
(154,-15,o),
(255,-15,cs),
(343,-15,o),
(374,-4,o),
(402,76,c),
(414,76,l),
(442,-7,o),
(508,-15,o),
(594,-15,cs),
(663,-15,o),
(752,-2,o),
(819,15,c),
(796,171,l),
(689,171,l),
(663,60,l,{
name = hr01;
}),
(538,60,l)
);
},
{
closed = 1;
nodes = (
(675,490,l),
(675,310,l),
(538,310,l),
(538,490,l)
);
},
{
closed = 1;
nodes = (
(211,76,l),
(211,240,l),
(348,240,l),
(348,76,l,{
name = hr02;
})
);
}
);
width = 891;
}
);
unicode = 230;
},
{
glyphname = b;
layers = (
{
layerId = master01;
shapes = (
{
closed = 1;
nodes = (
(208,550,ls),
(208,566,o),
(210,571,o),
(234,580,cs),
(275,595,l,{
name = hr01;
}),
(275,729,l),
(45,729,l),
(45,691,l),
(85,691,l),
(85,0,l),
(113,0,l),
(128,35,l),
(173,11,o),
(267,-15,o),
(343,-15,cs,{
name = hr02;
}),
(480,-15,o),
(612,-15,o),
(612,236,cs),
(612,304,ls),
(612,555,o),
(501,555,o),
(378,555,cs),
(308,555,o),
(256,544,o),
(226,464,c),
(208,464,l)
);
},
{
closed = 1;
nodes = (
(275,60,l,{
name = hr03;
}),
(275,464,l),
(422,464,l),
(422,60,l)
);
}
);
width = 672;
}
);
unicode = 98;
},
{
glyphname = c;
layers = (
{
layerId = master01;
shapes = (
{
closed = 1;
nodes = (
(389,-15,o),
(452,-10,o),
(520,15,c),
(496,171,l),
(381,171,l),
(354,50,l),
(250,50,l),
(250,500,l),
(354,500,l),
(381,379,l),
(496,379,l),
(520,535,l),
(454,554,o),
(389,565,o),
(320,565,cs),
(183,565,o),
(60,565,o),
(60,314,cs),
(60,236,ls),
(60,-15,o),
(183,-15,o),
(320,-15,cs,{
name = hr00;
})
);
}
);
width = 555;
}
);
unicode = 99;
},
{
glyphname = d;
layers = (
{
layerId = master01;
shapes = (
{
closed = 1;
nodes = (
(628,38,l),
(588,38,l),
(588,729,l),
(357,729,l),
(357,691,l),
(397,691,l),
(397,548,l),
(378,549,o),
(356,550,o),
(337,550,cs),
(191,550,o),
(60,550,o),
(60,299,cs),
(60,236,ls),
(60,-13,o),
(178,-15,o),
(298,-15,cs,{
name = hr01;
}),
(380,-15,o),
(412,-4,o),
(452,76,c),
(465,76,l),
(505,0,l,{
name = hr02;
}),
(628,0,l)
);
},
{
closed = 1;
nodes = (
(397,475,l),
(397,76,l,{
name = hr03;
}),
(250,76,l),
(250,475,l)
);
}
);
width = 668;
}
);
unicode = 100;
},
{
glyphname = eth;
layers = (
{
layerId = master01;
shapes = (
{
closed = 1;
nodes = (
(191,599,l),
(243,627,o),
(355,649,o),
(397,649,c),
(397,599,l),
(302,558,l),
(302,486,l),
(397,527,l),
(397,444,l),
(377,445,o),
(357,445,o),
(337,445,cs),
(191,445,o),
(60,445,o),
(60,223,cs),
(60,207,ls),
(60,-15,o),
(178,-15,o),
(310,-15,cs),
(456,-15,o),
(587,-15,o),
(587,207,cs),
(587,413,ls),
(587,486,o),
(582,550,o),
(565,601,c),
(647,637,l),
(647,709,l),
(538,661,l),
(504,711,o),
(448,740,o),
(358,740,cs),
(305,740,o),
(237,729,o),
(169,703,c,{
name = hr00;
})
);
},
{
closed = 1;
nodes = (
(250,60,l),
(250,370,l),
(397,370,l),
(397,60,l)
);
}
);
width = 647;
}
);
unicode = 240;
},
{
glyphname = e;
layers = (
{
layerId = master01;
shapes = (
{
closed = 1;
nodes = (
(387,490,l),
(387,310,l),
(250,310,l),
(250,490,l,{
name = hr00;
})
);
},
{
closed = 1;
nodes = (
(250,235,l),
(331,235,ls),
(444,235,o),
(543,235,o),
(543,400,cs),
(543,565,o),
(444,565,o),
(331,565,cs),
(191,565,o),
(60,565,o),
(60,314,cs),
(60,184,ls),
(60,-1,o),
(192,-15,o),
(306,-15,cs),
(375,-15,o),
(464,-2,o),
(531,15,c),
(508,171,l),
(401,171,l),
(375,60,l),
(250,60,l)
);
}
);
width = 593;
}
);
unicode = 101;
},
{
glyphname = f;
layers = (
{
layerId = master01;
shapes = (
{
closed = 1;
nodes = (
(85,444,l,{
name = hr01;
}),
(85,38,l),
(45,38,l,{
name = hr02;
}),
(45,0,l),
(345,0,l),
(345,38,l),
(275,38,l,{
name = hr03;
}),
(275,444,l),
(352,444,l),
(352,492,l),
(230,492,ls),
(214,492,o),
(200,492,o),
(200,518,cs,{
name = hr04;
}),
(200,578,l),
(352,578,l),
(369,731,l),
(332,739,o),
(299,744,o),
(267,744,cs),
(143,744,o),
(85,692,o),
(85,540,cs,{
name = hr05;
}),
(85,492,l),
(45,492,l,{
name = hr06;
}),
(45,444,l)
);
}
);
width = 360;
}
);
unicode = 102;
},
{
glyphname = g;
layers = (
{
layerId = master01;
shapes = (
{
closed = 1;
nodes = (
(20,-160,o),
(49,-195,o),
(276,-195,cs),
(492,-195,o),
(547,-156,o),
(547,-18,cs),
(547,104,o),
(467,135,o),
(413,135,cs),
(264,135,ls),
(237,135,o),
(230,151,o),
(230,191,cs,{
name = hr01;
}),
(230,215,l),
(266,215,ls),
(399,215,o),
(519,215,o),
(519,366,cs),
(519,483,ls),
(519,504,o),
(525,511,o),
(538,511,cs),
(549,511,l),
(549,600,l),
(505,600,ls),
(446,600,o),
(433,582,o),
(419,525,cs),
(409,484,l),
(396,484,l),
(396,551,o),
(347,565,o),
(262,565,cs),
(143,565,o),
(37,565,o),
(37,387,cs,{
name = hr02;
}),
(37,366,ls),
(37,284,o),
(73,246,o),
(124,229,c,{
name = hr03;
}),
(124,167,ls),
(124,140,o),
(131,113,o),
(175,104,c),
(175,91,l),
(100,91,ls),
(68,91,o),
(20,61,o),
(20,-41,cs)
);
},
{
closed = 1;
nodes = (
(210,297,l,{
name = hr05;
}),
(210,484,l),
(347,484,l),
(347,297,l)
);
},
{
closed = 1;
nodes = (
(403,-95,l),
(161,-95,l),
(161,10,l),
(403,10,l,{
name = hr06;
})
);
}
);
width = 589;
}
);
unicode = 103;
},
{
glyphname = h;
layers = (
{
layerId = master01;
shapes = (
{
closed = 1;
nodes = (
(652,38,l),
(612,38,l),
(612,405,ls),
(612,522,o),
(536,555,o),
(415,555,cs),
(315,555,o),
(256,544,o),
(226,464,c),
(208,464,l),
(208,550,ls),
(208,566,o),
(210,571,o),
(234,580,cs),
(275,595,l,{
name = hr01;
}),
(275,729,l),
(45,729,l),
(45,691,l),
(85,691,l),
(85,38,l),
(45,38,l),
(45,0,l),
(275,0,l),
(275,464,l),
(422,464,l),
(422,0,l),
(652,0,l)
);
}
);
width = 692;
}
);
unicode = 104;
},
{
glyphname = i;
layers = (
{
layerId = master01;
shapes = (
{
closed = 1;
nodes = (
(315,38,l),
(275,38,l),
(275,550,l),
(45,550,l),
(45,512,l),
(85,512,l),
(85,38,l),
(45,38,l),
(45,0,l),
(315,0,l,{
name = hr00;
})
);
},
{
closed = 1;
nodes = (
(284,757,o),
(266,765,o),
(186,765,cs),
(95,765,o),
(75,757,o),
(75,682,cs),
(75,607,o),
(95,599,o),
(186,599,cs),
(266,599,o),
(284,607,o),
(284,682,cs)
);
}
);
width = 355;
}
);
unicode = 105;
},
{
glyphname = idotless;
lastChange = "2023-02-17 13:58:04 +0000";
layers = (
{
layerId = master01;
shapes = (
{
closed = 1;
nodes = (
(315,38,l),
(275,38,l),
(275,550,l),
(45,550,l),
(45,512,l),
(85,512,l),
(85,38,l),
(45,38,l),
(45,0,l),
(315,0,l,{
name = hr00;
})
);
}
);
width = 355;
}
);
unicode = 305;
},
{
glyphname = j;
layers = (
{
layerId = master01;
shapes = (
{
closed = 1;
nodes = (
(217,-195,o),
(280,-132,o),
(280,20,cs),
(280,550,l),
(50,550,l),
(50,512,l),
(90,512,l),
(90,49,l),
(126,49,ls),
(142,49,o),
(156,49,o),
(156,23,cs,{
name = hr01;
}),
(156,-30,l),
(34,-30,l),
(14,-187,l),
(42,-193,o),
(70,-195,o),
(98,-195,cs)
);
},
{
closed = 1;
nodes = (
(289,757,o),
(271,765,o),
(191,765,cs),
(100,765,o),
(80,757,o),
(80,682,cs),
(80,607,o),
(100,599,o),
(191,599,cs),
(271,599,o),
(289,607,o),
(289,682,cs)
);
}
);
width = 360;
}
);
unicode = 106;
},
{
glyphname = jdotless;
lastChange = "2023-02-17 13:58:04 +0000";
layers = (
{
layerId = master01;
shapes = (
{
closed = 1;
nodes = (
(217,-195,o),
(280,-132,o),
(280,20,cs),
(280,550,l),
(50,550,l),
(50,512,l),
(90,512,l),
(90,49,l),
(126,49,ls),
(142,49,o),
(156,49,o),
(156,23,cs,{
name = hr01;
}),
(156,-30,l),
(34,-30,l),
(14,-187,l),
(42,-193,o),
(70,-195,o),
(98,-195,cs)
);
}
);
width = 360;
}
);
unicode = 567;
},
{
glyphname = k;
layers = (
{
layerId = master01;
shapes = (
{
closed = 1;
nodes = (
(362,559,o),
(314,510,o),
(270,359,c),
(252,359,l,{
name = hr01;
}),
(252,543,ls),
(252,559,o),
(254,564,o),
(278,573,cs),
(297,580,l,{
name = hr02;
}),
(297,729,l),
(40,729,l),
(40,691,l),
(80,691,l),
(80,38,l),
(40,38,l),
(40,0,l),
(632,0,l),
(632,38,l),
(593,38,l),
(527,315,l),
(442,315,ls),
(426,315,o),
(412,315,o),
(412,341,cs),
(412,394,l),
(534,394,l),
(554,551,l),
(526,557,o),
(477,559,o),
(449,559,cs)
);
},
{
closed = 1;
nodes = (
(270,268,l),
(343,268,l),
(391,0,l),
(270,0,l)
);
}
);
width = 642;
}
);
unicode = 107;
},
{
glyphname = kgreenlandic;
layers = (
{
layerId = master01;
shapes = (
{
closed = 1;
nodes = (
(465,284,o),
(493,298,o),
(506,343,cs),
(570,512,l),
(622,512,l),
(622,550,l),
(385,550,l),
(328,297,l),
(275,297,l),
(275,550,l),
(45,550,l),
(45,512,l),
(85,512,l),
(85,38,l),
(45,38,l),
(45,0,l),
(275,0,l),
(275,242,l),
(325,242,l),
(385,0,l),
(632,0,l),
(632,38,l),
(575,38,l),
(535,200,ls),
(526,245,o),
(517,257,o),
(471,257,cs),
(426,257,l),
(426,280,l,{
name = hr00;
})
);
}
);
width = 632;
}
);
unicode = 312;
},
{
glyphname = l;
layers = (
{
layerId = master01;
shapes = (
{
closed = 1;
nodes = (
(45,691,l),
(85,691,l),
(85,38,l),
(45,38,l),
(45,0,l),
(315,0,l),
(315,38,l),
(275,38,l),
(275,729,l),
(45,729,l,{
name = hr00;
})
);
}
);
width = 355;
}
);
unicode = 108;
},
{
glyphname = lslash;
layers = (
{
layerId = master01;
shapes = (
{
closed = 1;
nodes = (
(350,408,l),
(350,470,l),
(5,319,l),
(5,257,l,{
name = hr00;
})
);
},
{
ref = l;
}
);
width = 355;
}
);
unicode = 322;
},
{
glyphname = m;
layers = (
{
layerId = master01;
shapes = (
{
closed = 1;
nodes = (
(392,474,l),
(392,0,l),
(582,0,l),
(582,474,l),
(699,474,l),
(699,0,l),
(929,0,l),
(929,38,l),
(889,38,l),
(889,415,ls),
(889,532,o),
(813,565,o),
(693,565,cs),
(624,565,o),
(576,558,o),
(544,514,c),
(515,552,o),
(463,565,o),
(396,565,cs),
(310,565,o),
(256,554,o),
(226,474,c),
(213,474,l),
(178,550,l,{
name = hr01;
}),
(45,550,l),
(45,512,l),
(85,512,l),
(85,38,l),
(45,38,l),
(45,0,l,{
name = hr02;
}),
(275,0,l),
(275,474,l)
);
}
);
width = 969;
}
);
unicode = 109;
},
{
glyphname = n;
layers = (
{
layerId = master01;
shapes = (
{
closed = 1;
nodes = (
(652,38,l),
(612,38,l),
(612,415,ls),
(612,532,o),
(536,565,o),
(415,565,cs),
(315,565,o),
(256,554,o),
(226,474,c),
(213,474,l),
(178,550,l,{
name = hr01;
}),
(45,550,l),
(45,512,l),
(85,512,l),
(85,38,l),
(45,38,l),
(45,0,l),
(275,0,l),
(275,474,l,{
name = hr02;
}),
(422,474,l),
(422,0,l),
(652,0,l)
);
}
);
width = 692;
}
);
unicode = 110;
},
{
glyphname = eng;
layers = (
{
layerId = master01;
shapes = (
{
closed = 1;
nodes = (
(549,-195,o),
(612,-132,o),
(612,20,cs),
(612,415,ls),
(612,532,o),
(536,565,o),
(415,565,cs),
(315,565,o),
(256,554,o),
(226,474,c),
(213,474,l),
(178,550,l,{
name = hr01;
}),
(45,550,l),
(45,512,l),
(85,512,l),
(85,38,l),
(45,38,l),
(45,0,l),
(275,0,l),
(275,474,l,{
name = hr02;
}),
(422,474,l),
(422,49,l),
(458,49,ls),
(474,49,o),
(488,49,o),
(488,23,cs,{
name = hr03;
}),
(488,-30,l),
(366,-30,l),
(346,-187,l),
(374,-193,o),
(402,-195,o),
(430,-195,cs)
);
}
);
width = 692;
}
);
unicode = 331;
},
{
glyphname = o;
layers = (
{
layerId = master01;
shapes = (
{
closed = 1;
nodes = (
(587,565,o),
(469,565,o),
(337,565,cs),
(191,565,o),
(60,565,o),
(60,314,cs),
(60,236,ls),
(60,-15,o),
(178,-15,o),
(310,-15,cs),
(456,-15,o),
(587,-15,o),
(587,236,cs),
(587,314,ls,{
name = hr00;
})
);
},
{
closed = 1;
nodes = (
(250,60,l),
(250,490,l),
(397,490,l),
(397,60,l)
);
}
);
width = 647;
}
);
unicode = 111;
},
{
glyphname = oe;
layers = (
{
layerId = master01;
shapes = (
{
closed = 1;
nodes = (
(587,235,l),
(668,235,ls),
(781,235,o),
(880,235,o),
(880,400,cs),
(880,565,o),
(781,565,o),
(668,565,cs),
(605,565,o),
(544,565,o),
(496,542,c),
(452,565,o),
(396,565,o),
(337,565,cs),
(191,565,o),
(60,565,o),
(60,314,cs),
(60,236,ls),
(60,-15,o),
(178,-15,o),
(310,-15,cs),
(376,-15,o),
(440,-15,o),
(489,9,c),
(535,-12,o),
(591,-15,o),
(643,-15,cs),
(712,-15,o),
(801,-2,o),
(868,15,c),
(845,171,l),
(738,171,l),
(712,60,l),
(587,60,l,{
name = hr00;
})
);
},
{
closed = 1;
nodes = (
(436,490,l),
(411,453,o),
(397,397,o),
(397,314,cs),
(397,184,ls),
(397,129,o),
(408,89,o),
(428,60,c),
(250,60,l),
(250,490,l)
);
},
{
closed = 1;
nodes = (
(724,490,l),
(724,310,l),
(587,310,l),
(587,490,l)
);
}
);
width = 930;
}
);
unicode = 339;
},
{
glyphname = p;
layers = (
{
layerId = master01;
shapes = (
{
closed = 1;
nodes = (
(40,512,l),
(80,512,l),
(80,-180,l),
(325,-180,l),
(325,-142,l),
(271,-142,l),
(271,2,l),
(291,0,o),
(311,0,o),
(331,0,cs),
(477,0,o),
(608,0,o),
(608,251,cs),
(608,314,ls),
(608,563,o),
(492,565,o),
(373,565,cs,{
name = hr01;
}),
(290,565,o),
(246,554,o),
(216,474,c),
(203,474,l),
(163,550,l,{
name = hr02;
}),
(40,550,l)
);
},
{
closed = 1;
nodes = (
(271,75,l),
(271,474,l,{
name = hr03;
}),
(418,474,l),
(418,75,l)
);
}
);
width = 668;
}
);
unicode = 112;
},
{
glyphname = thorn;
layers = (
{
layerId = master01;
shapes = (
{
closed = 1;
nodes = (
(325,-142,l),
(270,-142,l),
(270,-9,l),
(293,-12,o),
(316,-15,o),
(338,-15,cs),
(475,-15,o),
(607,-15,o),
(607,236,cs),
(607,304,ls),
(607,555,o),
(496,555,o),
(373,555,cs),
(303,555,o),
(251,544,o),
(221,464,c),
(203,464,l,{
name = hr01;
}),
(203,550,ls),
(203,566,o),
(205,571,o),
(229,580,cs),
(270,595,l,{
name = hr02;
}),
(270,729,l),
(40,729,l),
(40,691,l),
(80,691,l),
(80,-180,l),
(325,-180,l)
);
},
{
closed = 1;
nodes = (
(270,60,l),
(270,464,l),
(417,464,l),
(417,60,l)
);
}
);
width = 668;
}
);
unicode = 254;
},
{
glyphname = q;
layers = (
{
layerId = master01;
shapes = (
{
closed = 1;
nodes = (
(627,-142,l),
(587,-142,l),
(587,550,l),
(559,550,l),
(544,515,l),
(499,539,o),
(405,565,o),
(329,565,cs,{
name = hr01;
}),
(192,565,o),
(60,565,o),
(60,314,cs),
(60,246,ls),
(60,-5,o),
(171,-5,o),
(294,-5,cs),
(364,-5,o),
(416,6,o),
(446,86,c),
(464,86,l),
(464,0,ls),
(464,-16,o),
(462,-21,o),
(438,-30,cs),
(397,-45,l,{
name = hr02;
}),
(397,-180,l),
(627,-180,l)
);
},
{
closed = 1;
nodes = (
(397,490,l),
(397,86,l),
(250,86,l),
(250,490,l)
);
}
);
width = 667;
}
);
unicode = 113;
},
{
glyphname = r;
layers = (
{
layerId = master01;
shapes = (
{
closed = 1;
nodes = (
(45,512,l),
(85,512,l),
(85,38,l),
(45,38,l),
(45,0,l),
(356,0,l),
(356,38,l),
(275,38,l),
(275,315,l),
(239,315,ls),
(223,315,o),
(209,315,o),
(209,341,cs,{
name = hr01;
}),
(209,394,l),
(351,394,l),
(372,559,l),
(349,563,o),
(328,565,o),
(309,565,cs),
(254,565,o),
(217,544,o),
(194,474,c),
(186,474,l),
(166,550,l,{
name = hr02;
}),
(45,550,l)
);
}
);
width = 391;
}
);
unicode = 114;
},
{
glyphname = s;
layers = (
{
layerId = master01;
shapes = (
{
closed = 1;
nodes = (
(408,-15,o),
(520,0,o),
(520,135,cs),
(520,216,o),
(492,253,o),
(439,289,cs),
(252,418,l),
(252,490,l),
(356,490,l),
(380,379,l),
(485,379,l),
(509,535,l),
(447,553,o),
(364,565,o),
(301,565,cs),
(174,565,o),
(62,550,o),
(62,415,cs),
(62,334,o),
(90,297,o),
(143,261,cs),
(330,132,l),
(330,60,l),
(216,60,l),
(189,171,l),
(74,171,l),
(50,15,l),
(118,-3,o),
(212,-15,o),
(281,-15,cs,{
name = hr00;
})
);
}
);
width = 570;
}
);
unicode = 115;
},
{
glyphname = germandbls;
layers = (
{
layerId = master01;
shapes = (
{
closed = 1;
nodes = (
(85,444,l),
(85,38,l),
(45,38,l),
(45,0,l),
(275,0,l),
(275,663,l),
(423,663,l),
(423,595,ls),
(423,505,o),
(420,431,o),
(326,396,c),
(326,313,l),
(423,313,l),
(423,50,l,{
name = hr01;
}),
(326,50,l),
(326,-11,l),
(352,-14,o),
(378,-15,o),
(404,-15,cs),
(581,-15,o),
(631,71,o),
(631,179,cs),
(631,282,o),
(558,361,o),
(482,372,c),
(482,379,l),
(553,403,o),
(589,454,o),
(589,550,cs,{
name = hr02;
}),
(589,695,o),
(467,744,o),
(352,744,cs),
(183,744,o),
(85,692,o),
(85,540,cs),
(85,492,l),
(45,492,l),
(45,444,l)
);
}
);
width = 651;
}
);
unicode = 223;
},
{
glyphname = t;
layers = (
{
layerId = master01;
shapes = (
{
closed = 1;
nodes = (
(40,502,l),
(80,502,l),
(80,150,ls),
(80,-15,o),
(164,-15,o),
(232,-15,cs),
(318,-15,o),
(375,0,o),
(375,76,cs),
(375,149,l),
(327,149,l),
(327,50,l,{
name = hr01;
}),
(270,50,l),
(270,502,l),
(375,502,l),
(375,550,l),
(270,550,l),
(270,668,l),
(198,668,l),
(90,550,l),
(40,550,l)
);
}
);
width = 390;
}
);
unicode = 116;
},
{
glyphname = u;
layers = (
{
layerId = master01;
shapes = (
{
closed = 1;
nodes = (
(80,-15,o),
(210,-15,o),
(316,-15,cs),
(410,-15,o),
(471,0,o),
(471,76,c),
(484,76,l),
(524,0,l,{
name = hr01;
}),
(647,0,l),
(647,38,l),
(607,38,l),
(607,550,l),
(417,550,l),
(417,76,l,{
name = hr02;
}),
(270,76,l),
(270,550,l),
(40,550,l),
(40,512,l),
(80,512,l),
(80,150,ls)
);
}
);
width = 692;
}
);
unicode = 117;
},
{
glyphname = v;
layers = (
{
layerId = master01;
shapes = (
{
closed = 1;
nodes = (
(382,84,l),
(305,84,l),
(261,550,l),
(20,550,l),
(20,512,l),
(59,512,l),
(132,0,l),
(453,0,l),
(563,550,l),
(382,550,l,{
name = hr00;
})
);
}
);
width = 598;
}
);
unicode = 118;
},
{
glyphname = w;
layers = (
{
layerId = master01;
shapes = (
{
closed = 1;
nodes = (
(484,0,l),
(710,0,l),
(820,550,l),
(639,550,l),
(639,84,l),
(562,84,l),
(518,550,l),
(382,550,l),
(382,84,l),
(305,84,l),
(261,550,l),
(20,550,l),
(20,512,l),
(59,512,l),
(132,0,l),
(427,0,l),
(458,158,l),
(484,158,l,{
name = hr00;
})
);
}
);
width = 855;
}
);
unicode = 119;
},
{
glyphname = x;
layers = (
{
layerId = master01;
shapes = (
{
closed = 1;
nodes = (
(221,226,l),
(277,226,l),
(332,0,l),
(578,0,l),
(578,38,l),
(539,38,l),
(465,270,l),
(568,550,l),
(382,550,l),
(382,324,l),
(326,324,l),
(271,550,l),
(25,550,l),
(25,512,l),
(64,512,l),
(137,280,l),
(35,0,l),
(221,0,l,{
name = hr00;
})
);
}
);
width = 603;
}
);
unicode = 120;
},
{
glyphname = y;
layers = (
{
layerId = master01;
shapes = (
{
closed = 1;
nodes = (
(382,49,l),
(309,49,l),
(261,550,l),
(20,550,l),
(20,512,l),
(59,512,l),
(125,49,l),
(210,49,ls),
(226,49,o),
(240,49,o),
(240,23,cs),
(240,-30,l),
(118,-30,l),
(98,-187,l),
(126,-193,o),
(175,-195,o),
(203,-195,cs),
(327,-195,o),
(427,-123,o),
(458,31,cs),
(563,550,l),
(382,550,l,{
name = hr00;
})
);
}
);
width = 598;
}
);
unicode = 121;
},
{
glyphname = z;
layers = (
{
layerId = master01;
shapes = (
{
closed = 1;
nodes = (
(265,73,l),
(515,492,l),
(488,550,l),
(49,550,l),
(60,364,l),
(162,364,l),
(196,477,l),
(302,477,l),
(15,0,l),
(518,0,l),
(507,186,l),
(405,186,l),
(371,73,l,{
name = hr00;
})
);
}
);
width = 564;
}
);
unicode = 122;
},
{
glyphname = ordfeminine;
layers = (
{
layerId = master01;
shapes = (
{
closed = 1;
nodes = (
(71,536,o),
(31,524,o),
(31,439,cs),
(31,341,o),
(78,341,o),
(133,341,cs),
(175,341,o),
(232,357,o),
(232,403,c),
(238,403,l),
(261,350,l),
(344,350,l),
(344,386,l),
(321,386,l,{
name = hr01;
}),
(321,600,ls),
(321,684,o),
(245,694,o),
(178,694,cs),
(133,694,o),
(84,684,o),
(40,676,c),
(52,560,l),
(127,560,l),
(148,643,l,{
name = hr02;
}),
(205,643,l),
(205,536,l),
(133,536,ls)
);
},
{
closed = 1;
nodes = (
(135,403,l),
(135,501,l),
(205,501,l),
(205,403,l)
);
}
);
width = 367;
}
);
unicode = 170;
},
{
glyphname = ordmasculine;
layers = (
{
layerId = master01;
shapes = (
{
closed = 1;
nodes = (
(332,694,o),
(264,694,o),
(189,694,cs),
(105,694,o),
(30,694,o),
(30,540,cs),
(30,495,ls),
(30,341,o),
(98,341,o),
(173,341,cs),
(258,341,o),
(332,341,o),
(332,495,cs),
(332,540,ls,{
name = hr00;
})
);
},
{
closed = 1;
nodes = (
(146,393,l),
(146,643,l),
(216,643,l),
(216,393,l)
);
}
);
width = 362;
}
);
unicode = 186;
},
{
glyphname = pi;
layers = (
{
layerId = master01;
shapes = (
{
closed = 1;
nodes = (
(710,550,l),
(30,550,l),
(30,467,l),
(100,467,l),
(100,0,l),
(305,0,l),
(305,467,l),
(415,467,l),
(430,236,ls),
(446,-14,o),
(577,-15,o),
(670,-15,c,{
name = hr01;
}),
(636,467,l),
(710,467,l)
);
}
);
width = 740;
}
);
unicode = 960;
},
{
glyphname = zero;
layers = (
{
layerId = master01;
shapes = (
{
closed = 1;
nodes = (
(542,609,o),
(408,609,o),
(297,609,cs),
(175,609,o),
(27,609,o),
(27,363,cs),
(27,237,ls),
(27,-9,o),
(161,-9,o),
(272,-9,cs),
(393,-9,o),
(542,-9,o),
(542,237,cs),
(542,363,ls,{
name = hr00;
})
);
},
{
closed = 1;
nodes = (
(238,545,l),
(387,545,l),
(336,52,l),
(187,52,l)
);
}
);
width = 570;
}
);
unicode = 48;
},
{
glyphname = one;
layers = (
{
layerId = master01;
shapes = (
{
closed = 1;
nodes = (
(438,38,l),
(334,38,l),
(334,610,l),
(290,610,l),
(24,546,l),
(47,413,l),
(234,413,l),
(234,385,l),
(119,355,l),
(119,38,l),
(15,38,l),
(15,0,l),
(438,0,l,{
name = hr00;
})
);
}
);
width = 438;
}
);
unicode = 49;
},
{
glyphname = two;
layers = (
{
layerId = master01;
shapes = (
{
closed = 1;
nodes = (
(524,0,l),
(506,208,l),
(445,208,l),
(352,66,l),
(282,66,l),
(405,255,ls),
(466,349,o),
(507,418,o),
(507,491,cs),
(507,600,o),
(401,615,o),
(293,615,cs),
(220,615,o),
(150,603,o),
(79,585,c),
(96,399,l),
(179,399,l),
(268,550,l),
(348,550,l),
(36,38,l),
(51,0,l,{
name = hr00;
})
);
}
);
width = 570;
}
);
unicode = 50;
},
{
glyphname = three;
layers = (
{
layerId = master01;
shapes = (
{
closed = 1;
nodes = (
(201,615,o),
(135,603,o),
(66,585,c),
(81,399,l),
(186,399,l),
(265,550,l),
(345,550,l),
(234,341,l),
(140,341,l),
(140,258,l),
(222,258,l),
(333,50,l),
(253,50,l),
(174,201,l),
(69,201,l),
(54,15,l),
(126,-3,o),
(195,-15,o),
(268,-15,cs),
(445,-15,o),
(515,51,o),
(515,159,cs),
(515,262,o),
(467,296,o),
(391,307,c),
(391,314,l),
(462,328,o),
(507,367,o),
(507,463,cs),
(507,558,o),
(440,615,o),
(271,615,cs,{
name = hr00;
})
);
}
);
width = 570;
}
);
unicode = 51;
},
{
glyphname = four;
layers = (
{
layerId = master01;
shapes = (
{
closed = 1;
nodes = (
(262,115,l),
(262,38,l),
(128,38,l),
(128,0,l),
(541,0,l),
(541,38,l),
(477,38,l),
(477,115,l),
(531,115,l),
(531,198,l,{
name = hr01;
}),
(477,198,l),
(477,600,l),
(168,600,l),
(8,175,l),
(8,115,l)
);
},
{
closed = 1;
nodes = (
(262,181,l,{
name = hr02;
}),
(141,181,l),
(221,540,l),
(262,540,l)
);
}
);
width = 570;
}
);
unicode = 52;
},
{
glyphname = five;
layers = (
{
layerId = master01;
shapes = (
{
closed = 1;
nodes = (
(339,50,l),
(259,50,l),
(180,201,l),
(76,201,l),
(60,15,l),
(127,-3,o),
(194,-15,o),
(268,-15,cs),
(450,-15,o),
(521,44,o),
(521,175,cs),
(521,319,o),
(430,349,o),
(302,349,cs),
(236,349,l),
(236,540,l),
(361,540,l),
(361,399,l),
(482,399,l),
(516,600,l),
(77,600,l),
(77,271,l),
(221,271,l,{
name = hr00;
})
);
}
);
width = 570;
}
);
unicode = 53;
},
{
glyphname = six;
layers = (
{
layerId = master01;
shapes = (
{
closed = 1;
nodes = (
(352,280,l),
(352,50,l),
(225,50,l),
(225,280,l,{
name = hr00;
})
);
},
{
closed = 1;
nodes = (
(466,-15,o),
(529,44,o),
(529,173,cs),
(529,315,o),
(441,349,o),
(316,349,cs),
(225,349,l),
(225,550,l),
(352,550,l),
(352,399,l),
(479,399,l),
(509,585,l),
(439,607,o),
(373,615,o),
(299,615,cs),
(182,615,o),
(40,615,o),
(40,364,cs),
(40,236,ls),
(40,-15,o),
(169,-15,o),
(275,-15,cs)
);
}
);
width = 570;
}
);
unicode = 54;
},
{
glyphname = seven;
layers = (
{
layerId = master01;
shapes = (
{
closed = 1;
nodes = (
(503,0,l),
(503,38,l),
(367,38,l),
(544,562,l),
(529,600,l),
(45,600,l),
(67,362,l),
(168,362,l),
(222,534,l),
(311,534,l),
(147,38,l),
(50,38,l),
(50,0,l,{
name = hr00;
})
);
}
);
width = 570;
}
);
unicode = 55;
},
{
glyphname = eight;
layers = (
{
layerId = master01;
shapes = (
{
closed = 1;
nodes = (
(112,615,o),
(53,556,o),
(53,427,cs),
(53,339,o),
(87,306,o),
(116,287,cs),
(352,154,l),
(352,50,l),
(225,50,l),
(225,180,l),
(94,257,l),
(60,230,o),
(40,187,o),
(40,132,cs,{
name = hr01;
}),
(40,19,o),
(128,-15,o),
(275,-15,cs),
(466,-15,o),
(529,44,o),
(529,173,cs),
(529,235,o),
(510,278,o),
(461,312,cs),
(217,453,l),
(217,550,l),
(344,550,l),
(344,426,l),
(470,353,l),
(495,378,o),
(516,419,o),
(516,478,cs,{
name = hr02;
}),
(516,581,o),
(433,615,o),
(294,615,cs)
);
}
);
width = 570;
}
);
unicode = 56;
},
{
glyphname = nine;
layers = (
{
layerId = master01;
shapes = (
{
closed = 1;
nodes = (
(217,285,l),
(217,550,l),
(344,550,l),
(344,285,l,{
name = hr00;
})
);
},
{
closed = 1;
nodes = (
(186,167,l),
(70,167,l),
(55,8,l),
(123,-8,o),
(193,-15,o),
(265,-15,cs),
(384,-15,o),
(529,-15,o),
(529,236,cs),
(529,364,ls),
(529,615,o),
(400,615,o),
(294,615,cs),
(92,615,o),
(40,565,o),
(40,409,cs),
(40,253,o),
(122,216,o),
(252,216,cs),
(344,216,l),
(344,50,l),
(217,50,l)
);
}
);
width = 570;
}
);
unicode = 57;
},
{
glyphname = fraction;
layers = (
{
layerId = master01;
shapes = (
{
closed = 1;
nodes = (
(218,648,l),
(167,648,l),
(20,-48,l),
(70,-48,l,{
name = hr00;
})
);
}
);
width = 238;
}
);
unicode = 8260;
},
{
glyphname = zeroinferior;
layers = (
{
layerId = master01;
shapes = (
{
closed = 1;
nodes = (
(381,402,o),
(293,402,o),
(220,402,cs),
(139,402,o),
(41,402,o),
(41,240,cs),
(41,156,ls),
(41,-6,o),
(129,-6,o),
(203,-6,cs),
(283,-6,o),
(381,-6,o),
(381,156,cs),
(381,240,ls,{
name = hr00;
})
);
},
{
closed = 1;
nodes = (
(201,363,l),
(259,363,l),
(225,31,l),
(167,31,l)
);
}
);
width = 422;
}
);
unicode = 8320;
},
{
glyphname = oneinferior;
layers = (
{
layerId = master01;
shapes = (
{
closed = 1;
nodes = (
(228,403,l),
(176,403,l),
(0,348,l),
(16,265,l),
(137,265,l),
(137,241,l),
(56,220,l),
(56,0,l),
(228,0,l,{
name = hr00;
})
);
}
);
width = 278;
}
);
unicode = 8321;
},
{
glyphname = twoinferior;
layers = (
{
layerId = master01;
shapes = (
{
closed = 1;
nodes = (
(356,0,l),
(345,140,l),
(314,140,l),
(253,44,l,{
name = hr01;
}),
(204,44,l),
(276,158,ls),
(319,227,o),
(340,269,o),
(340,311,cs),
(340,396,o),
(255,406,o),
(183,406,cs),
(135,406,o),
(99,398,o),
(51,386,c),
(63,256,l),
(117,256,l),
(180,363,l,{
name = hr02;
}),
(227,363,l),
(27,25,l),
(37,0,l)
);
}
);
width = 381;
}
);
unicode = 8322;
},
{
glyphname = threeinferior;
layers = (
{
layerId = master01;
shapes = (
{
closed = 1;
nodes = (
(136,406,o),
(90,398,o),
(43,386,c),
(55,256,l),
(109,256,l),
(171,363,l),
(226,363,l),
(140,216,l),
(102,216,l),
(102,180,l),
(132,180,l),
(218,33,l),
(163,33,l),
(101,140,l,{
name = hr01;
}),
(46,140,l),
(35,10,l),
(84,-2,o),
(132,-10,o),
(182,-10,cs),
(294,-10,o),
(343,34,o),
(343,105,cs),
(343,173,o),
(310,196,o),
(260,203,c),
(260,207,l),
(307,216,o),
(337,243,o),
(337,306,cs),
(337,369,o),
(295,406,o),
(184,406,cs)
);
}
);
width = 384;
}
);
unicode = 8323;
},
{
glyphname = fourinferior;
layers = (
{
layerId = master01;
shapes = (
{
closed = 1;
nodes = (
(154,76,l),
(154,0,l),
(316,0,l),
(316,76,l),
(351,76,l),
(351,131,l),
(316,131,l),
(316,396,l),
(92,396,l),
(0,116,l),
(0,76,l,{
name = hr00;
})
);
},
{
closed = 1;
nodes = (
(154,356,l),
(154,120,l),
(76,120,l),
(118,356,l)
);
}
);
width = 371;
}
);
unicode = 8324;
},
{
glyphname = period;
layers = (
{
layerId = master01;
shapes = (
{
closed = 1;
nodes = (
(248,178,o),
(230,188,o),
(160,188,cs),
(78,188,o),
(60,178,o),
(60,88,cs),
(60,0,o),
(78,-10,o),
(159,-10,cs),
(230,-10,o),
(248,0,o),
(248,88,cs,{
name = hr00;
})
);
}
);
width = 308;
}
);
unicode = 46;
},
{
glyphname = comma;
layers = (
{
layerId = master01;
shapes = (
{
closed = 1;
nodes = (
(248,179,o),
(232,188,o),
(163,188,cs),
(80,188,o),
(60,179,o),
(60,94,cs),
(60,27,o),
(84,12,o),
(126,12,c),
(111,-105,l),
(162,-113,l),
(221,-57,o),
(248,15,o),
(248,94,cs,{
name = hr00;
})
);
}
);
width = 308;
}
);
unicode = 44;
},
{
glyphname = ellipsis;
layers = (
{
layerId = master01;
shapes = (
{
closed = 1;
nodes = (
(248,178,o),
(230,188,o),
(160,188,cs),
(78,188,o),
(60,178,o),
(60,88,cs),
(60,0,o),
(78,-10,o),
(159,-10,cs),
(230,-10,o),
(248,0,o),
(248,88,cs,{
name = hr00;
})
);
},
{
closed = 1;
nodes = (
(556,178,o),
(538,188,o),
(468,188,cs),
(386,188,o),
(368,178,o),
(368,88,cs),
(368,0,o),
(386,-10,o),
(467,-10,cs),
(538,-10,o),
(556,0,o),
(556,88,cs)
);
},
{
closed = 1;
nodes = (
(864,178,o),
(846,188,o),
(776,188,cs),
(694,188,o),
(676,178,o),
(676,88,cs),
(676,0,o),
(694,-10,o),
(775,-10,cs),
(846,-10,o),
(864,0,o),
(864,88,cs)
);
}
);
width = 924;
}
);
unicode = 8230;
},
{
glyphname = exclam;
layers = (
{
layerId = master01;
shapes = (
{
closed = 1;
nodes = (
(281,142,o),
(263,151,o),
(183,151,cs),
(92,151,o),
(72,142,o),
(72,68,cs),
(72,-7,o),
(92,-15,o),
(182,-15,cs),
(262,-15,o),
(281,-7,o),
(281,68,cs,{
name = hr00;
})
);
},
{
closed = 1;
nodes = (
(63,365,l),
(93,233,l),
(262,233,l),
(292,365,l),
(292,635,l),
(63,635,l)
);
}
);
width = 355;
}
);
unicode = 33;
},
{
glyphname = exclamdown;
layers = (
{
layerId = master01;
shapes = (
{
closed = 1;
nodes = (
(74,408,o),
(92,399,o),
(172,399,cs),
(263,399,o),
(283,408,o),
(283,482,cs),
(283,557,o),
(263,565,o),
(173,565,cs),
(93,565,o),
(74,557,o),
(74,482,cs,{
name = hr00;
})
);
},
{
closed = 1;
nodes = (
(292,185,l),
(262,317,l),
(93,317,l),
(63,185,l),
(63,-85,l),
(292,-85,l)
);
}
);
width = 355;
}
);
unicode = 161;
},
{
glyphname = question;
layers = (
{
layerId = master01;
shapes = (
{
closed = 1;
nodes = (
(436,590,o),
(364,650,o),
(215,650,cs),
(145,650,o),
(78,638,o),
(10,620,c),
(27,398,l),
(105,398,l),
(204,575,l),
(294,575,l),
(123,270,l),
(123,229,l),
(158,218,o),
(217,211,o),
(252,211,cs),
(338,211,o),
(436,256,o),
(436,429,cs,{
name = hr00;
})
);
},
{
closed = 1;
nodes = (
(313,142,o),
(295,151,o),
(215,151,cs),
(124,151,o),
(104,142,o),
(104,68,cs),
(104,-7,o),
(124,-15,o),
(214,-15,cs),
(294,-15,o),
(313,-7,o),
(313,68,cs)
);
}
);
width = 446;
}
);
unicode = 63;
},
{
glyphname = questiondown;
layers = (
{
layerId = master01;
shapes = (
{
closed = 1;
nodes = (
(28,-40,o),
(100,-100,o),
(249,-100,cs),
(319,-100,o),
(386,-88,o),
(454,-70,c),
(437,152,l),
(359,152,l),
(260,-25,l),
(170,-25,l),
(341,280,l),
(341,321,l),
(306,332,o),
(247,339,o),
(212,339,cs),
(126,339,o),
(28,294,o),
(28,121,cs,{
name = hr00;
})
);
},
{
closed = 1;
nodes = (
(151,408,o),
(169,399,o),
(249,399,cs),
(340,399,o),
(360,408,o),
(360,482,cs),
(360,557,o),
(340,565,o),
(250,565,cs),
(170,565,o),
(151,557,o),
(151,482,cs)
);
}
);
width = 461;
}
);
unicode = 191;
},
{
glyphname = asterisk;
layers = (
{
layerId = master01;
shapes = (
{
closed = 1;
nodes = (
(335,563,l),
(467,592,l),
(500,495,l),
(375,441,l),
(445,327,l),
(360,265,l),
(272,367,l),
(184,265,l),
(99,327,l),
(169,441,l),
(44,495,l),
(77,593,l),
(209,563,l),
(212,600,o),
(218,655,o),
(221,697,c),
(323,697,l,{
name = hr00;
})
);
}
);
width = 544;
}
);
unicode = 42;
},
{
glyphname = numbersign;
layers = (
{
layerId = master01;
shapes = (
{
closed = 1;
nodes = (
(203,361,l),
(185,263,l),
(68,263,l),
(50,161,l),
(167,161,l),
(139,0,l),
(241,0,l),
(269,161,l),
(367,161,l),
(339,0,l),
(441,0,l),
(469,161,l),
(589,161,l),
(607,263,l),
(487,263,l),
(505,361,l),
(624,361,l),
(642,463,l),
(523,463,l),
(552,624,l),
(450,624,l),
(421,463,l),
(323,463,l),
(352,624,l),
(250,624,l),
(221,463,l),
(102,463,l),
(84,361,l,{
name = hr00;
})
);
},
{
closed = 1;
nodes = (
(403,361,l),
(385,263,l),
(287,263,l),
(305,361,l)
);
}
);
width = 692;
}
);
unicode = 35;
},
{
glyphname = slash;
layers = (
{
layerId = master01;
shapes = (
{
closed = 1;
nodes = (
(255,729,l),
(204,729,l),
(-17,-129,l),
(33,-129,l,{
name = hr00;
})
);
}
);
width = 238;
}
);
unicode = 47;
},
{
glyphname = backslash;
layers = (
{
layerId = master01;
shapes = (
{
closed = 1;
nodes = (
(34,729,l),
(-17,729,l),
(205,-129,l),
(255,-129,l,{
name = hr00;
})
);
}
);
width = 238;
}
);
unicode = 92;
},
{
glyphname = hyphen;
layers = (
{
layerId = master01;
shapes = (
{
closed = 1;
nodes = (
(342,213,l),
(342,351,l),
(30,351,l),
(30,213,l,{
name = hr00;
})
);
}
);
width = 372;
}
);
unicode = 45;
},
{
glyphname = endash;
layers = (
{
layerId = master01;
shapes = (
{
closed = 1;
nodes = (
(578,213,l),
(578,351,l),
(30,351,l),
(30,213,l,{
name = hr00;
})
);
}
);
width = 608;
}
);
unicode = 8211;
},
{
glyphname = emdash;
layers = (
{
layerId = master01;
shapes = (
{
closed = 1;
nodes = (
(850,213,l),
(850,351,l),
(30,351,l),
(30,213,l,{
name = hr00;
})
);
}
);
width = 880;
}
);
unicode = 8212;
},
{
glyphname = underscore;
layers = (
{
layerId = master01;
shapes = (
{
closed = 1;
nodes = (
(462,-153,l),
(462,-15,l),
(24,-15,l),
(24,-153,l,{
name = hr00;
})
);
}
);
width = 486;
}
);
unicode = 95;
},
{
glyphname = parenleft;
layers = (
{
layerId = master01;
shapes = (
{
closed = 1;
nodes = (
(195,634,o),
(232,634,o),
(288,634,c),
(288,685,l),
(172,685,o),
(62,685,o),
(62,380,cs),
(62,255,ls),
(62,-50,o),
(172,-50,o),
(288,-50,c),
(288,1,l),
(232,1,o),
(195,1,o),
(195,263,cs),
(195,372,ls,{
name = hr00;
})
);
}
);
width = 308;
}
);
unicode = 40;
},
{
glyphname = parenright;
layers = (
{
layerId = master01;
shapes = (
{
closed = 1;
nodes = (
(113,1,o),
(76,1,o),
(20,1,c),
(20,-50,l),
(136,-50,o),
(246,-50,o),
(246,255,cs),
(246,380,ls),
(246,685,o),
(136,685,o),
(20,685,c),
(20,634,l),
(76,634,o),
(113,634,o),
(113,372,cs),
(113,263,ls,{
name = hr00;
})
);
}
);
width = 308;
}
);
unicode = 41;
},
{
glyphname = braceleft;
layers = (
{
layerId = master01;
shapes = (
{
closed = 1;
nodes = (
(62,277,l),
(62,219,ls),
(62,-30,o),
(154,-50,o),
(288,-50,c),
(288,1,l),
(233,1,o),
(196,1,o),
(196,243,cs),
(196,280,o),
(171,311,o),
(124,311,c),
(124,323,l),
(170,323,o),
(195,354,o),
(195,391,cs),
(195,633,o),
(232,633,o),
(288,633,c),
(288,684,l),
(154,684,o),
(62,664,o),
(62,415,cs),
(62,357,l),
(0,339,l),
(0,295,l,{
name = hr00;
})
);
}
);
width = 308;
}
);
unicode = 123;
},
{
glyphname = braceright;
layers = (
{
layerId = master01;
shapes = (
{
closed = 1;
nodes = (
(246,357,l),
(246,415,ls),
(246,664,o),
(154,684,o),
(20,684,c),
(20,633,l),
(75,633,o),
(112,633,o),
(112,391,cs),
(112,354,o),
(137,323,o),
(184,323,c),
(184,311,l),
(138,311,o),
(113,280,o),
(113,243,cs),
(113,1,o),
(76,1,o),
(20,1,c),
(20,-50,l),
(154,-50,o),
(246,-30,o),
(246,219,cs),
(246,277,l),
(308,295,l),
(308,339,l,{
name = hr00;
})
);
}
);
width = 308;
}
);
unicode = 125;
},
{
glyphname = bracketleft;
layers = (
{
layerId = master01;
shapes = (
{
closed = 1;
nodes = (
(288,1,l),
(194,1,l,{
name = hr01;
}),
(194,634,l),
(288,634,l,{
name = hr02;
}),
(288,685,l),
(80,685,l),
(80,-50,l),
(288,-50,l)
);
}
);
width = 308;
}
);
unicode = 91;
},
{
glyphname = bracketright;
layers = (
{
layerId = master01;
shapes = (
{
closed = 1;
nodes = (
(20,-50,l),
(228,-50,l),
(228,685,l),
(20,685,l),
(20,634,l),
(114,634,l,{
name = hr01;
}),
(114,1,l),
(20,1,l)
);
}
);
width = 308;
}
);
unicode = 93;
},
{
glyphname = quotedblleft;
layers = (
{
layerId = master01;
shapes = (
{
closed = 1;
nodes = (
(30,344,o),
(46,335,o),
(115,335,cs),
(198,335,o),
(218,344,o),
(218,429,cs),
(218,496,o),
(194,511,o),
(152,511,c),
(167,628,l),
(116,636,l),
(57,580,o),
(30,508,o),
(30,429,cs,{
name = hr00;
})
);
},
{
closed = 1;
nodes = (
(268,344,o),
(284,335,o),
(353,335,cs),
(436,335,o),
(456,344,o),
(456,429,cs),
(456,496,o),
(432,511,o),
(390,511,c),
(405,628,l),
(354,636,l),
(295,580,o),
(268,508,o),
(268,429,cs)
);
}
);
width = 501;
}
);
unicode = 8220;
},
{
glyphname = quotedblright;
layers = (
{
layerId = master01;
shapes = (
{
closed = 1;
nodes = (
(471,631,o),
(455,640,o),
(386,640,cs),
(303,640,o),
(283,631,o),
(283,546,cs),
(283,479,o),
(307,464,o),
(349,464,c),
(334,347,l),
(385,339,l),
(444,395,o),
(471,467,o),
(471,546,cs,{
name = hr00;
})
);
},
{
closed = 1;
nodes = (
(233,631,o),
(217,640,o),
(148,640,cs),
(65,640,o),
(45,631,o),
(45,546,cs),
(45,479,o),
(69,464,o),
(111,464,c),
(96,347,l),
(147,339,l),
(206,395,o),
(233,467,o),
(233,546,cs)
);
}
);
width = 501;
}
);
unicode = 8221;
},
{
glyphname = quoteleft;
layers = (
{
layerId = master01;
shapes = (
{
closed = 1;
nodes = (
(30,344,o),
(46,335,o),
(115,335,cs),
(198,335,o),
(218,344,o),
(218,429,cs),
(218,496,o),
(194,511,o),
(152,511,c),
(167,628,l),
(116,636,l),
(57,580,o),
(30,508,o),
(30,429,cs,{
name = hr00;
})
);
}
);
width = 263;
}
);
unicode = 8216;
},
{
glyphname = quoteright;
layers = (
{
layerId = master01;
shapes = (
{
closed = 1;
nodes = (
(233,631,o),
(217,640,o),
(148,640,cs),
(65,640,o),
(45,631,o),
(45,546,cs),
(45,479,o),
(69,464,o),
(111,464,c),
(96,347,l),
(147,339,l),
(206,395,o),
(233,467,o),
(233,546,cs,{
name = hr00;
})
);
}
);
width = 263;
}
);
unicode = 8217;
},
{
glyphname = guillemetleft;
lastChange = "2023-02-17 13:58:04 +0000";
layers = (
{
layerId = master01;
shapes = (
{
closed = 1;
nodes = (
(467,415,l),
(385,281,l),
(468,146,l),
(391,82,l),
(246,238,l),
(246,324,l),
(391,479,l,{
name = hr00;
})
);
},
{
closed = 1;
nodes = (
(236,415,l),
(154,281,l),
(237,146,l),
(160,82,l),
(15,238,l),
(15,324,l),
(160,479,l)
);
}
);
width = 488;
}
);
unicode = 171;
},
{
glyphname = guillemetright;
lastChange = "2023-02-17 13:58:04 +0000";
layers = (
{
layerId = master01;
shapes = (
{
closed = 1;
nodes = (
(242,238,l),
(97,82,l),
(20,146,l),
(103,281,l),
(21,415,l),
(97,479,l),
(242,324,l,{
name = hr00;
})
);
},
{
closed = 1;
nodes = (
(473,238,l),
(328,82,l),
(251,146,l),
(334,281,l),
(252,415,l),
(328,479,l),
(473,324,l)
);
}
);
width = 488;
}
);
unicode = 187;
},
{
glyphname = guilsinglleft;
layers = (
{
layerId = master01;
shapes = (
{
closed = 1;
nodes = (
(236,415,l),
(154,281,l),
(237,146,l),
(160,82,l),
(15,238,l),
(15,324,l),
(160,479,l,{
name = hr00;
})
);
}
);
width = 257;
}
);
unicode = 8249;
},
{
glyphname = guilsinglright;
layers = (
{
layerId = master01;
shapes = (
{
closed = 1;
nodes = (
(242,238,l),
(97,82,l),
(20,146,l),
(103,281,l),
(21,415,l),
(97,479,l),
(242,324,l,{
name = hr00;
})
);
}
);
width = 257;
}
);
unicode = 8250;
},
{
glyphname = quotedbl;
layers = (
{
layerId = master01;
shapes = (
{
closed = 1;
nodes = (
(47,333,l),
(176,333,l),
(176,635,l),
(15,635,l,{
name = hr00;
})
);
},
{
closed = 1;
nodes = (
(226,333,l),
(355,333,l),
(387,635,l),
(226,635,l)
);
}
);
width = 402;
}
);
unicode = 34;
},
{
glyphname = quotesingle;
layers = (
{
layerId = master01;
shapes = (
{
closed = 1;
nodes = (
(47,333,l),
(176,333,l),
(208,635,l),
(15,635,l,{
name = hr00;
})
);
}
);
width = 223;
}
);
unicode = 39;
},
{
glyphname = florin;
layers = (
{
layerId = master01;
shapes = (
{
closed = 1;
nodes = (
(423,310,l),
(300,310,l),
(300,550,l),
(387,550,l,{
name = hr01;
}),
(387,419,l),
(471,419,l),
(516,585,l),
(475,599,o),
(404,615,o),
(337,615,cs),
(236,615,o),
(95,615,o),
(95,364,cs,{
name = hr02;
}),
(95,310,l),
(41,310,l),
(41,277,l),
(95,277,l),
(95,-127,l),
(188,-127,o),
(300,-127,o),
(300,124,cs),
(300,277,l),
(423,277,l)
);
}
);
width = 575;
}
);
unicode = 402;
},
{
glyphname = apple;
lastChange = "2023-02-17 13:58:04 +0000";
layers = (
{
layerId = master01;
shapes = (
{
closed = 1;
nodes = (
(559,-88,o),
(563,-88,o),
(566,-88,cs),
(574,-88,o),
(581,-89,o),
(589,-89,cs),
(615,-89,o),
(617,-70,o),
(634,-60,cs),
(649,-52,o),
(670,-51,o),
(683,-42,cs),
(696,-33,o),
(701,-11,o),
(713,1,cs),
(723,11,o),
(739,12,o),
(748,23,cs),
(759,36,o),
(758,60,o),
(766,74,cs),
(776,91,o),
(800,92,o),
(800,120,cs),
(800,130,o),
(798,141,o),
(798,152,cs),
(798,177,o),
(820,180,o),
(823,200,c),
(823,214,o),
(812,229,o),
(812,244,cs,{
name = hr01;
}),
(812,257,o),
(823,269,o),
(823,283,cs),
(823,305,o),
(799,319,o),
(799,344,cs),
(799,352,o),
(800,360,o),
(800,369,cs,{
name = hr02;
}),
(800,397,o),
(775,400,o),
(764,418,cs),
(758,428,o),
(763,450,o),
(757,460,cs),
(746,479,o),
(720,483,o),
(706,496,cs),
(694,508,o),
(696,526,o),
(683,535,cs),
(669,545,o),
(653,542,o),
(638,550,cs),
(619,560,o),
(617,586,o),
(590,586,cs),
(580,586,o),
(570,583,o),
(562,583,cs),
(538,583,o),
(531,608,o),
(505,608,cs,{
name = hr03;
}),
(491,608,o),
(474,596,o),
(460,596,cs),
(447,596,o),
(429,608,o),
(416,608,cs),
(394,608,o),
(386,585,o),
(361,585,cs),
(352,585,o),
(343,587,o),
(335,587,cs),
(310,586,o),
(303,558,o),
(286,549,cs),
(270,541,o),
(248,543,o),
(235,532,cs),
(224,522,o),
(220,501,o),
(210,491,cs),
(199,480,o),
(178,480,o),
(170,467,cs),
(163,456,o),
(166,435,o),
(159,424,cs),
(149,407,o),
(124,401,o),
(124,376,cs),
(124,368,o),
(125,359,o),
(125,351,cs),
(125,332,o),
(100,311,o),
(100,290,cs,{
name = hr04;
}),
(100,275,o),
(112,265,o),
(112,248,cs,{
name = hr05;
}),
(112,233,o),
(100,218,o),
(100,204,cs,{
name = hr06;
}),
(100,183,o),
(125,168,o),
(125,149,cs),
(125,141,o),
(122,133,o),
(122,124,cs),
(122,98,o),
(148,87,o),
(156,75,cs),
(167,57,o),
(160,46,o),
(171,28,cs),
(181,12,o),
(197,15,o),
(210,4,cs),
(223,-7,o),
(222,-31,o),
(240,-42,cs),
(256,-52,o),
(263,-43,o),
(286,-55,cs),
(299,-62,o),
(311,-91,o),
(337,-91,cs),
(344,-91,o),
(353,-89,o),
(361,-89,cs),
(385,-89,o),
(396,-114,o),
(416,-114,cs,{
name = hr07;
}),
(431,-114,o),
(446,-102,o),
(462,-102,cs,{
name = hr08;
}),
(477,-102,o),
(493,-112,o),
(508,-112,cs),
(525,-112,o),
(538,-94,o),
(556,-89,cs)
);
},
{
closed = 1;
nodes = (
(517,0,o),
(507,-13,o),
(495,-13,cs,{
name = hr10;
}),
(484,-13,o),
(473,-6,o),
(462,-6,cs),
(450,-6,o),
(438,-15,o),
(426,-15,c,{
name = hr11;
}),
(412,-13,o),
(405,3,o),
(386,3,cs,{
name = hr12;
}),
(381,3,o),
(376,2,o),
(371,2,cs),
(352,2,o),
(345,23,o),
(334,28,cs),
(317,37,o),
(312,29,o),
(301,37,cs),
(288,45,o),
(289,63,o),
(279,71,cs),
(270,79,o),
(258,77,o),
(251,88,cs),
(243,101,o),
(248,110,o),
(240,123,cs),
(235,132,o),
(215,139,o),
(215,158,cs),
(215,163,o),
(217,169,o),
(217,174,cs),
(217,189,o),
(200,200,o),
(200,215,cs,{
name = hr13;
}),
(200,226,o),
(208,237,o),
(208,248,cs),
(208,260,o),
(200,267,o),
(200,278,cs),
(200,294,o),
(217,308,o),
(217,324,cs),
(217,329,o),
(216,335,o),
(216,340,cs),
(216,359,o),
(235,363,o),
(242,376,cs),
(247,384,o),
(245,399,o),
(250,407,cs),
(257,416,o),
(271,416,o),
(279,424,cs),
(287,432,o),
(289,447,o),
(298,454,cs),
(307,462,o),
(323,460,o),
(334,466,cs),
(347,472,o),
(351,493,o),
(370,493,cs),
(376,493,o),
(381,492,o),
(387,492,cs),
(406,492,o),
(413,509,o),
(429,509,cs,{
name = hr14;
}),
(439,509,o),
(451,500,o),
(461,500,cs),
(471,500,o),
(483,509,o),
(494,509,cs),
(513,509,o),
(516,491,o),
(535,491,cs),
(541,491,o),
(548,493,o),
(555,493,cs,{
name = hr15;
}),
(575,493,o),
(576,474,o),
(589,467,cs),
(601,460,o),
(612,464,o),
(622,456,cs),
(632,449,o),
(630,436,o),
(639,428,cs),
(649,418,o),
(668,415,o),
(676,402,cs),
(680,394,o),
(677,379,o),
(681,371,cs),
(689,357,o),
(707,356,o),
(707,335,cs),
(707,329,o),
(706,323,o),
(706,318,cs),
(706,300,o),
(724,289,o),
(724,273,cs,{
name = hr16;
}),
(724,264,o),
(716,254,o),
(716,245,cs),
(716,234,o),
(724,223,o),
(724,213,c),
(721,199,o),
(706,196,o),
(706,177,cs),
(706,171,o),
(707,164,o),
(707,157,cs,{
name = hr17;
}),
(707,133,o),
(691,136,o),
(683,122,cs),
(677,111,o),
(677,94,o),
(670,84,cs),
(663,76,o),
(651,76,o),
(644,68,cs),
(636,60,o),
(632,45,o),
(622,38,cs),
(613,31,o),
(597,30,o),
(587,24,c),
(575,19,o),
(574,3,o),
(554,3,cs),
(549,3,o),
(544,4,o),
(539,4,cs),
(536,4,o),
(533,4,o),
(530,3,cs)
);
},
{
closed = 1;
nodes = (
(368,417,o),
(292,341,o),
(292,247,cs),
(292,153,o),
(368,77,o),
(462,77,cs),
(556,77,o),
(632,153,o),
(632,247,cs),
(632,341,o),
(556,417,o),
(462,417,cs)
);
},
{
closed = 1;
nodes = (
(505,117,l),
(420,117,l),
(420,292,l),
(366,292,l),
(366,360,l),
(557,360,l),
(557,292,l),
(505,292,l)
);
}
);
width = 923;
}
);
unicode = 63743;
},
{
glyphname = at;
layers = (
{
layerId = master01;
shapes = (
{
closed = 1;
nodes = (
(346,269,l),
(346,139,l),
(426,139,l),
(426,269,l)
);
},
{
closed = 1;
nodes = (
(461,139,l),
(453,139,l),
(453,78,o),
(405,57,o),
(349,57,cs),
(276,57,o),
(200,57,o),
(200,187,cs),
(200,300,o),
(267,316,o),
(349,316,cs),
(426,316,l),
(426,458,l),
(353,458,l),
(336,365,l),
(234,365,l),
(217,501,l),
(276,515,o),
(349,526,o),
(408,526,cs),
(497,526,o),
(591,512,o),
(591,401,cs),
(591,117,l,{
name = hr01;
}),
(680,117,l),
(688,157,o),
(692,207,o),
(692,267,cs),
(692,534,o),
(622,588,o),
(393,588,cs),
(164,588,o),
(95,534,o),
(95,267,cs),
(95,2,o),
(164,-53,o),
(393,-53,cs),
(486,-53,o),
(599,-36,o),
(691,-15,c),
(691,-62,l),
(599,-83,o),
(486,-101,o),
(393,-101,cs,{
name = hr02;
}),
(138,-101,o),
(45,-39,o),
(45,267,cs,{
name = hr03;
}),
(45,575,o),
(138,635,o),
(393,635,cs),
(646,635,o),
(742,575,o),
(742,267,cs),
(742,184,o),
(735,120,o),
(720,69,c),
(492,69,l)
);
}
);
width = 787;
}
);
unicode = 64;
},
{
glyphname = ampersand;
layers = (
{
layerId = master01;
shapes = (
{
closed = 1;
nodes = (
(690,38,l),
(617,38,l),
(484,292,l),
(564,292,l),
(564,364,l),
(445,364,l),
(329,581,l),
(398,581,l),
(479,431,l),
(566,431,l),
(583,618,l),
(509,637,o),
(442,650,o),
(366,650,cs),
(262,650,o),
(150,634,o),
(150,500,cs),
(150,445,o),
(165,401,o),
(186,361,c),
(88,352,o),
(30,313,o),
(30,173,cs),
(30,-14,o),
(108,-15,o),
(183,-15,cs,{
name = hr01;
}),
(231,-15,o),
(282,-15,o),
(297,28,c),
(161,286,l),
(230,286,l),
(382,0,l,{
name = hr02;
}),
(690,0,l)
);
}
);
width = 645;
}
);
unicode = 38;
},
{
glyphname = paragraph;
layers = (
{
layerId = master01;
shapes = (
{
closed = 1;
nodes = (
(530,630,o),
(437,650,o),
(305,650,cs),
(159,650,o),
(50,630,o),
(50,424,cs),
(50,250,o),
(105,213,o),
(212,207,c),
(212,0,l),
(250,0,l),
(250,585,l),
(330,585,l),
(330,86,ls),
(330,-165,o),
(408,-165,o),
(530,-165,c),
(530,424,ls,{
name = hr00;
})
);
}
);
width = 610;
}
);
unicode = 182;
},
{
glyphname = section;
layers = (
{
layerId = master01;
shapes = (
{
closed = 1;
nodes = (
(465,308,l),
(342,308,l,{
name = hr01;
}),
(342,577,l),
(422,577,l),
(422,430,l),
(516,430,l),
(567,616,l),
(521,632,o),
(441,650,o),
(366,650,cs),
(253,650,o),
(132,650,o),
(132,368,cs,{
name = hr02;
}),
(132,271,l),
(465,271,l)
);
},
{
closed = 1;
nodes = (
(132,177,l),
(255,177,l,{
name = hr04;
}),
(255,-92,l),
(175,-92,l),
(175,55,l),
(81,55,l),
(30,-131,l),
(76,-147,o),
(156,-165,o),
(231,-165,cs),
(344,-165,o),
(465,-165,o),
(465,117,cs,{
name = hr05;
}),
(465,214,l),
(132,214,l,{
name = hr03;
})
);
}
);
width = 597;
}
);
unicode = 167;
},
{
glyphname = copyright;
layers = (
{
layerId = master01;
shapes = (
{
closed = 1;
nodes = (
(508,681,o),
(441,723,o),
(264,723,cs),
(85,723,o),
(20,681,o),
(20,465,cs),
(20,251,o),
(85,208,o),
(264,208,cs),
(441,208,o),
(508,251,o),
(508,465,cs)
);
},
{
closed = 1;
nodes = (
(237,322,l),
(237,609,l),
(284,609,l),
(284,487,l,{
name = hr01;
}),
(415,487,l),
(415,497,ls),
(415,648,o),
(348,648,o),
(273,648,cs),
(191,648,o),
(116,648,o),
(116,497,cs),
(116,435,ls),
(116,283,o),
(183,283,o),
(258,283,cs),
(341,283,o),
(415,283,o),
(415,435,cs),
(415,440,l,{
name = hr02;
}),
(284,440,l),
(284,322,l)
);
},
{
closed = 1;
nodes = (
(473,280,o),
(424,241,o),
(264,241,cs),
(103,241,o),
(55,280,o),
(55,465,cs),
(55,652,o),
(103,690,o),
(264,690,cs),
(424,690,o),
(473,652,o),
(473,465,cs)
);
}
);
width = 528;
}
);
unicode = 169;
},
{
glyphname = registered;
layers = (
{
layerId = master01;
shapes = (
{
closed = 1;
nodes = (
(508,681,o),
(441,723,o),
(264,723,cs),
(85,723,o),
(20,681,o),
(20,465,cs),
(20,251,o),
(85,208,o),
(264,208,cs),
(441,208,o),
(508,251,o),
(508,465,cs)
);
},
{
closed = 1;
nodes = (
(245,405,l,{
name = hr01;
}),
(292,405,l),
(292,291,l,{
name = hr02;
}),
(415,291,l),
(404,398,ls),
(401,424,o),
(394,431,o),
(368,431,cs),
(344,431,l),
(344,438,l),
(391,444,o),
(425,459,o),
(425,531,cs),
(425,640,o),
(353,640,o),
(273,640,cs),
(124,640,l),
(124,291,l),
(245,291,l)
);
},
{
closed = 1;
nodes = (
(245,436,l),
(245,602,l),
(292,602,l),
(292,436,l)
);
},
{
closed = 1;
nodes = (
(473,280,o),
(424,241,o),
(264,241,cs),
(103,241,o),
(55,280,o),
(55,465,cs),
(55,652,o),
(103,690,o),
(264,690,cs),
(424,690,o),
(473,652,o),
(473,465,cs)
);
}
);
width = 528;
}
);
unicode = 174;
},
{
glyphname = trademark;
layers = (
{
layerId = master01;
shapes = (
{
closed = 1;
nodes = (
(488,640,l),
(356,640,l),
(356,291,l),
(396,291,l),
(396,607,l,{
name = hr01;
}),
(406,607,l),
(461,291,l),
(563,291,l),
(611,607,l),
(621,607,l),
(621,291,l),
(739,291,l),
(739,640,l),
(576,640,l),
(540,401,l),
(530,401,l)
);
},
{
closed = 1;
nodes = (
(84,522,l),
(98,601,l),
(117,601,l,{
name = hr02;
}),
(117,291,l),
(235,291,l),
(235,601,l),
(255,601,l),
(268,526,l),
(323,526,l,{
name = hr03;
}),
(323,640,l),
(30,640,l,{
name = hr04;
}),
(30,522,l)
);
}
);
width = 789;
}
);
unicode = 8482;
},
{
glyphname = degree;
layers = (
{
layerId = master01;
shapes = (
{
closed = 1;
nodes = (
(59,711,o),
(35,673,o),
(35,571,cs),
(35,469,o),
(59,431,o),
(182,431,cs),
(305,431,o),
(329,469,o),
(329,571,cs),
(329,673,o),
(305,711,o),
(182,711,cs,{
name = hr00;
})
);
},
{
closed = 1;
nodes = (
(230,629,o),
(238,624,o),
(238,571,cs),
(238,516,o),
(230,513,o),
(182,513,cs),
(134,513,o),
(126,516,o),
(126,571,cs),
(126,624,o),
(134,629,o),
(182,629,c)
);
}
);
width = 364;
}
);
unicode = 176;
},
{
glyphname = bar;
layers = (
{
layerId = master01;
shapes = (
{
closed = 1;
nodes = (
(154,-50,l),
(154,684,l),
(100,684,l),
(100,-50,l,{
name = hr00;
})
);
}
);
width = 254;
}
);
unicode = 124;
},
{
glyphname = brokenbar;
layers = (
{
layerId = master01;
shapes = (
{
closed = 1;
nodes = (
(154,-50,l),
(154,229,l),
(100,229,l),
(100,-50,l,{
name = hr00;
})
);
},
{
closed = 1;
nodes = (
(154,405,l),
(154,684,l),
(100,684,l),
(100,405,l)
);
}
);
width = 254;
}
);
unicode = 166;
},
{
glyphname = dagger;
layers = (
{
layerId = master01;
shapes = (
{
closed = 1;
nodes = (
(453,434,l),
(318,434,l),
(353,578,l),
(353,635,l),
(124,635,l),
(124,578,l),
(159,434,l),
(25,434,l),
(25,366,l),
(159,366,l),
(124,200,l),
(124,-150,l),
(353,-150,l),
(353,200,l),
(318,366,l),
(453,366,l,{
name = hr00;
})
);
}
);
width = 478;
}
);
unicode = 8224;
},
{
glyphname = literSign;
lastChange = "2023-02-17 13:58:04 +0000";
layers = (
{
layerId = master01;
shapes = (
{
closed = 1;
nodes = (
(80,150,ls),
(80,-15,o),
(164,-15,o),
(232,-15,cs),
(318,-15,o),
(375,0,o),
(375,76,cs),
(375,149,l),
(327,149,l),
(327,50,l,{
name = hr01;
}),
(270,50,l),
(270,620,l),
(80,600,l)
);
}
);
width = 390;
}
);
unicode = 8467;
},
{
glyphname = daggerdbl;
layers = (
{
layerId = master01;
shapes = (
{
closed = 1;
nodes = (
(124,578,l),
(159,434,l),
(25,434,l),
(25,366,l),
(167,366,l),
(131,296,l),
(131,189,l),
(167,119,l),
(25,119,l),
(25,51,l),
(159,51,l),
(124,-93,l),
(124,-150,l),
(353,-150,l),
(353,-93,l),
(318,51,l),
(453,51,l),
(453,119,l),
(310,119,l),
(346,189,l),
(346,296,l),
(310,366,l),
(453,366,l),
(453,434,l),
(318,434,l),
(353,578,l),
(353,635,l),
(124,635,l,{
name = hr00;
})
);
}
);
width = 478;
}
);
unicode = 8225;
},
{
glyphname = estimated;
layers = (
{
layerId = master01;
shapes = (
{
closed = 1;
nodes = (
(157,78,l),
(198,39,o),
(247,19,o),
(302,19,cs),
(385,19,o),
(449,59,o),
(495,139,c),
(530,118,l),
(461,26,o),
(409,-17,o),
(302,-17,cs),
(138,-17,o),
(44,107,o),
(44,259,cs),
(44,422,o),
(142,535,o),
(302,535,cs),
(473,535,o),
(554,413,o),
(561,259,c),
(157,259,l,{
name = hr00;
})
);
},
{
closed = 1;
nodes = (
(448,440,l),
(406,480,o),
(357,500,o),
(301,500,cs),
(244,500,o),
(196,480,o),
(157,440,c),
(157,295,l),
(448,295,l)
);
}
);
width = 600;
}
);
unicode = 8494;
},
{
glyphname = cent;
layers = (
{
layerId = master01;
shapes = (
{
closed = 1;
nodes = (
(271,665,l),
(271,556,l),
(157,555,o),
(60,538,o),
(60,301,cs),
(60,63,o),
(157,47,o),
(272,46,c),
(272,-66,l),
(306,-66,l),
(306,46,l),
(366,46,o),
(426,55,o),
(480,72,c),
(453,236,l),
(359,236,l),
(332,111,l),
(245,111,l),
(245,491,l),
(332,491,l),
(359,366,l),
(453,366,l),
(480,530,l),
(421,545,o),
(365,555,o),
(305,556,c),
(305,665,l,{
name = hr00;
})
);
}
);
width = 547;
}
);
unicode = 162;
},
{
glyphname = currency;
layers = (
{
layerId = master01;
shapes = (
{
closed = 1;
nodes = (
(32,532,l),
(104,459,l),
(75,426,o),
(67,374,o),
(67,301,cs),
(67,227,o),
(75,176,o),
(104,142,c),
(32,70,l),
(56,46,l),
(131,121,l),
(164,101,o),
(214,92,o),
(287,92,cs),
(360,92,o),
(409,101,o),
(443,121,c),
(518,46,l),
(542,70,l),
(469,142,l),
(498,176,o),
(507,227,o),
(507,301,cs),
(507,374,o),
(498,426,o),
(469,459,c),
(542,532,l),
(518,556,l),
(443,481,l),
(409,501,o),
(360,510,o),
(287,510,cs),
(214,510,o),
(164,501,o),
(131,481,c),
(56,556,l,{
name = hr00;
})
);
},
{
closed = 1;
nodes = (
(358,387,o),
(371,380,o),
(371,301,cs),
(371,218,o),
(358,215,o),
(287,215,cs),
(216,215,o),
(203,218,o),
(203,301,cs),
(203,380,o),
(216,387,o),
(287,387,cs)
);
}
);
width = 575;
}
);
unicode = 164;
},
{
glyphname = dollar;
layers = (
{
layerId = master01;
shapes = (
{
closed = 1;
nodes = (
(523,226,o),
(429,318,o),
(377,382,cs),
(248,542,l),
(338,542,l),
(433,425,l),
(504,425,l),
(511,579,l),
(464,597,o),
(392,610,o),
(322,612,c),
(322,706,l),
(288,706,l),
(288,611,l,{
name = hr01;
}),
(146,607,o),
(69,554,o),
(69,452,cs),
(69,384,o),
(134,322,o),
(172,275,cs),
(346,58,l),
(256,58,l),
(150,189,l),
(80,189,l),
(72,15,l),
(129,0,o),
(198,-11,o),
(272,-12,c),
(272,-107,l),
(306,-107,l),
(306,-11,l,{
name = hr02;
}),
(442,-7,o),
(523,38,o),
(523,138,cs)
);
}
);
width = 575;
}
);
unicode = 36;
},
{
glyphname = euro;
lastChange = "2023-02-17 13:58:04 +0000";
layers = (
{
layerId = master01;
shapes = (
{
closed = 1;
nodes = (
(491,277,l),
(267,277,l),
(267,317,l),
(491,317,l),
(491,350,l),
(267,350,l),
(267,550,l),
(407,550,l),
(407,419,l),
(491,419,l),
(536,585,l),
(497,599,o),
(417,615,o),
(350,615,cs),
(201,615,o),
(66,615,o),
(62,350,c),
(20,350,l),
(20,317,l),
(62,317,l),
(62,277,l),
(20,277,l),
(20,244,l),
(62,244,l),
(68,-15,o),
(202,-15,o),
(350,-15,cs),
(417,-15,o),
(497,1,o),
(536,15,c),
(491,181,l),
(407,181,l),
(407,50,l),
(267,50,l),
(267,244,l),
(491,244,l,{
name = hr00;
})
);
}
);
width = 576;
}
);
unicode = 8364;
},
{
glyphname = franc;
layers = (
{
layerId = master01;
shapes = (
{
closed = 1;
nodes = (
(470,319,l),
(289,319,l),
(289,540,l),
(368,540,l),
(409,406,l),
(526,406,l),
(526,600,l),
(30,600,l),
(30,562,l,{
name = hr01;
}),
(74,562,l),
(74,38,l),
(30,38,l),
(30,0,l),
(413,0,l),
(413,38,l),
(289,38,l),
(289,264,l),
(470,264,l)
);
},
{
closed = 1;
nodes = (
(0,143,l),
(423,143,l),
(423,176,l),
(0,176,l)
);
}
);
width = 546;
}
);
unicode = 8355;
},
{
glyphname = lira;
layers = (
{
layerId = master01;
shapes = (
{
closed = 1;
nodes = (
(499,162,l),
(408,162,l),
(374,53,l,{
name = hr01;
}),
(253,53,l),
(281,89,o),
(300,149,o),
(300,251,cs),
(300,550,l),
(387,550,l),
(387,419,l),
(471,419,l),
(516,585,l),
(477,599,o),
(405,615,o),
(338,615,cs),
(236,615,o),
(95,615,o),
(95,364,cs),
(95,33,l,{
name = hr02;
}),
(41,33,l),
(41,0,l),
(499,0,l)
);
},
{
closed = 1;
nodes = (
(41,318,l),
(423,318,l),
(423,351,l),
(41,351,l)
);
},
{
closed = 1;
nodes = (
(41,213,l),
(423,213,l),
(423,246,l),
(41,246,l)
);
}
);
width = 575;
}
);
unicode = 8356;
},
{
glyphname = sterling;
layers = (
{
layerId = master01;
shapes = (
{
closed = 1;
nodes = (
(499,162,l),
(408,162,l),
(374,53,l,{
name = hr01;
}),
(253,53,l),
(281,89,o),
(300,149,o),
(300,251,cs),
(300,277,l),
(423,277,l),
(423,310,l),
(300,310,l),
(300,550,l),
(387,550,l),
(387,419,l),
(471,419,l),
(516,585,l),
(477,599,o),
(405,615,o),
(338,615,cs),
(236,615,o),
(95,615,o),
(95,364,cs),
(95,310,l),
(41,310,l),
(41,277,l),
(95,277,l),
(95,33,l,{
name = hr02;
}),
(41,33,l),
(41,0,l),
(499,0,l)
);
}
);
width = 575;
}
);
unicode = 163;
},
{
glyphname = yen;
layers = (
{
layerId = master01;
shapes = (
{
closed = 1;
nodes = (
(470,33,l),
(385,33,l),
(385,204,l),
(524,204,l),
(524,237,l),
(396,237,l),
(412,277,l),
(524,277,l),
(524,310,l),
(426,310,l),
(546,600,l),
(301,600,l),
(362,310,l),
(286,310,l),
(225,600,l),
(21,600,l),
(141,310,l),
(43,310,l),
(43,277,l),
(154,277,l),
(171,237,l),
(43,237,l),
(43,204,l),
(182,204,l),
(182,33,l),
(97,33,l),
(97,0,l),
(470,0,l,{
name = hr00;
})
);
}
);
width = 567;
}
);
unicode = 165;
},
{
glyphname = plus;
layers = (
{
layerId = master01;
shapes = (
{
closed = 1;
nodes = (
(219,261,l),
(219,102,l),
(321,102,l),
(321,261,l),
(480,261,l),
(480,363,l),
(321,363,l),
(321,522,l),
(219,522,l),
(219,363,l),
(60,363,l),
(60,261,l,{
name = hr00;
})
);
}
);
width = 540;
}
);
unicode = 43;
},
{
glyphname = minus;
layers = (
{
layerId = master01;
shapes = (
{
closed = 1;
nodes = (
(480,261,l),
(480,363,l),
(60,363,l),
(60,261,l,{
name = hr00;
})
);
}
);
width = 540;
}
);
unicode = 8722;
},
{
glyphname = multiply;
layers = (
{
layerId = master01;
shapes = (
{
closed = 1;
nodes = (
(270,244,l),
(395,119,l),
(463,187,l),
(338,312,l),
(463,437,l),
(395,505,l),
(270,380,l),
(145,505,l),
(77,437,l),
(202,312,l),
(77,187,l),
(145,119,l,{
name = hr00;
})
);
}
);
width = 540;
}
);
unicode = 215;
},
{
glyphname = greater;
layers = (
{
layerId = master01;
shapes = (
{
closed = 1;
nodes = (
(60,543,l),
(60,441,l),
(372,314,l),
(60,188,l),
(60,86,l),
(480,266,l),
(480,363,l,{
name = hr00;
})
);
}
);
width = 540;
}
);
unicode = 62;
},
{
glyphname = less;
layers = (
{
layerId = master01;
shapes = (
{
closed = 1;
nodes = (
(480,86,l),
(480,188,l),
(168,314,l),
(480,441,l),
(480,543,l),
(60,363,l),
(60,266,l,{
name = hr00;
})
);
}
);
width = 540;
}
);
unicode = 60;
},
{
glyphname = approxequal;
layers = (
{
layerId = master01;
shapes = (
{
closed = 1;
nodes = (
(90,347,o),
(119,341,o),
(149,341,cs),
(230,341,o),
(311,380,o),
(392,380,cs,{
name = hr01;
}),
(421,380,o),
(450,375,o),
(480,361,c),
(480,463,l),
(450,476,o),
(421,481,o),
(391,481,cs),
(310,481,o),
(230,444,o),
(149,444,cs,{
name = hr02;
}),
(119,444,o),
(90,449,o),
(60,463,c),
(60,361,l)
);
},
{
closed = 1;
nodes = (
(89,146,o),
(119,141,o),
(149,141,cs),
(229,141,o),
(310,181,o),
(391,181,cs,{
name = hr03;
}),
(421,181,o),
(450,176,o),
(480,161,c),
(480,263,l),
(450,277,o),
(421,282,o),
(392,282,cs),
(311,282,o),
(230,243,o),
(149,243,cs,{
name = hr04;
}),
(119,243,o),
(90,248,o),
(60,263,c),
(60,161,l)
);
}
);
width = 540;
}
);
unicode = 8776;
},
{
glyphname = asciitilde;
layers = (
{
layerId = master01;
shapes = (
{
closed = 1;
nodes = (
(87,242,o),
(121,236,o),
(153,236,cs),
(233,236,o),
(303,286,o),
(383,286,cs,{
name = hr01;
}),
(418,286,o),
(450,277,o),
(480,261,c),
(480,363,l),
(448,378,o),
(416,384,o),
(381,384,cs),
(303,384,o),
(234,339,o),
(157,339,cs,{
name = hr02;
}),
(124,339,o),
(89,344,o),
(60,363,c),
(60,261,l)
);
}
);
width = 540;
}
);
unicode = 126;
},
{
glyphname = logicalnot;
layers = (
{
layerId = master01;
shapes = (
{
closed = 1;
nodes = (
(480,363,l),
(399,363,l),
(399,121,l),
(480,121,l,{
name = hr00;
})
);
},
{
ref = minus;
}
);
width = 540;
}
);
unicode = 172;
},
{
glyphname = asciicircum;
layers = (
{
layerId = master01;
shapes = (
{
closed = 1;
nodes = (
(41,309,l),
(143,309,l),
(270,621,l),
(396,309,l),
(498,309,l),
(318,729,l),
(221,729,l,{
name = hr00;
})
);
}
);
width = 540;
}
);
unicode = 94;
},
{
glyphname = infinity;
layers = (
{
layerId = master01;
shapes = (
{
closed = 1;
nodes = (
(733,103,o),
(812,187,o),
(812,308,cs),
(812,441,o),
(731,519,o),
(635,519,cs),
(542,519,o),
(478,477,o),
(425,387,c),
(374,463,o),
(318,519,o),
(231,519,cs),
(129,519,o),
(50,435,o),
(50,314,cs),
(50,181,o),
(131,103,o),
(227,103,cs),
(320,103,o),
(384,145,o),
(437,236,c),
(488,159,o),
(544,103,o),
(630,103,cs,{
name = hr00;
})
);
},
{
closed = 1;
nodes = (
(186,195,o),
(145,244,o),
(145,313,cs),
(145,384,o),
(186,426,o),
(247,426,cs),
(303,426,o),
(347,377,o),
(384,318,c),
(353,242,o),
(298,195,o),
(247,195,cs)
);
},
{
closed = 1;
nodes = (
(676,427,o),
(717,378,o),
(717,309,cs),
(717,238,o),
(676,196,o),
(615,196,cs),
(560,196,o),
(516,245,o),
(478,305,c),
(509,380,o),
(564,427,o),
(615,427,cs)
);
}
);
width = 862;
}
);
unicode = 8734;
},
{
glyphname = integral;
layers = (
{
layerId = master01;
shapes = (
{
closed = 1;
nodes = (
(397,550,l),
(406,610,l),
(383,613,o),
(360,615,o),
(337,615,cs),
(236,615,o),
(90,615,o),
(90,364,cs),
(90,-130,l),
(-2,-130,l),
(-11,-190,l),
(12,-193,o),
(35,-195,o),
(58,-195,cs),
(159,-195,o),
(305,-195,o),
(305,56,cs),
(305,550,l,{
name = hr00;
})
);
}
);
width = 395;
}
);
unicode = 8747;
},
{
glyphname = Ohm;
lastChange = "2023-02-17 13:58:04 +0000";
layers = (
{
layerId = master01;
shapes = (
{
closed = 1;
nodes = (
(600,38,l),
(423,38,l),
(423,91,l),
(525,104,o),
(600,146,o),
(600,332,cs),
(600,339,ls),
(600,615,o),
(470,615,o),
(325,615,cs),
(165,615,o),
(20,615,o),
(20,339,cs),
(20,332,ls),
(20,146,o),
(96,100,o),
(197,89,c),
(197,38,l),
(20,38,l),
(20,0,l),
(235,0,l),
(235,544,l),
(385,544,l),
(385,0,l),
(600,0,l,{
name = hr00;
})
);
}
);
width = 620;
}
);
unicode = 8486;
},
{
glyphname = increment;
lastChange = "2023-02-17 13:58:04 +0000";
layers = (
{
layerId = master01;
shapes = (
{
closed = 1;
nodes = (
(469,600,l),
(218,600,l),
(70,0,l),
(596,0,l,{
name = hr00;
})
);
},
{
closed = 1;
nodes = (
(280,540,l),
(385,50,l),
(137,50,l),
(259,540,l)
);
}
);
width = 666;
}
);
unicode = 8710;
},
{
glyphname = product;
layers = (
{
layerId = master01;
shapes = (
{
closed = 1;
nodes = (
(710,600,l),
(30,600,l),
(30,517,l),
(100,517,l),
(100,0,l),
(305,0,l),
(305,517,l),
(417,517,l),
(443,236,ls),
(466,-13,o),
(590,-15,o),
(683,-15,c,{
name = hr01;
}),
(637,517,l),
(710,517,l)
);
}
);
width = 740;
}
);
unicode = 8719;
},
{
glyphname = summation;
layers = (
{
layerId = master01;
shapes = (
{
closed = 1;
nodes = (
(543,600,l),
(30,600,l),
(30,537,l),
(204,238,l),
(30,-117,l),
(30,-180,l),
(543,-180,l),
(543,-97,l),
(235,-97,l),
(409,238,l),
(235,517,l),
(533,517,l,{
name = hr00;
})
);
}
);
width = 553;
}
);
unicode = 8721;
},
{
glyphname = radical;
layers = (
{
layerId = master01;
shapes = (
{
closed = 1;
nodes = (
(506,729,l),
(383,-119,l),
(362,-119,l),
(290,301,l),
(30,301,l),
(30,263,l),
(93,263,l),
(167,-179,l),
(424,-179,l),
(551,691,l),
(752,691,l),
(752,729,l,{
name = hr00;
})
);
}
);
width = 652;
}
);
unicode = 8730;
},
{
glyphname = partialdiff;
layers = (
{
layerId = master01;
shapes = (
{
closed = 1;
nodes = (
(220,599,l),
(275,627,o),
(390,649,o),
(432,649,c),
(406,444,l),
(387,445,o),
(367,445,o),
(347,445,cs),
(167,445,o),
(36,405,o),
(36,148,cs),
(36,-15,o),
(144,-15,o),
(263,-15,cs),
(410,-15,o),
(539,-15,o),
(569,223,cs),
(599,463,o),
(603,508,o),
(603,547,cs),
(603,671,o),
(561,740,o),
(404,740,cs),
(351,740,o),
(282,729,o),
(210,703,c,{
name = hr00;
})
);
},
{
closed = 1;
nodes = (
(212,60,l),
(250,370,l),
(397,370,l),
(359,60,l)
);
}
);
width = 647;
}
);
unicode = 8706;
},
{
glyphname = micro;
lastChange = "2023-02-17 13:58:04 +0000";
layers = (
{
layerId = master01;
shapes = (
{
closed = 1;
nodes = (
(220,-180,l),
(250,-13,l),
(272,-15,o),
(294,-15,o),
(316,-15,cs),
(410,-15,o),
(471,0,o),
(471,76,c),
(484,76,l),
(524,0,l,{
name = hr01;
}),
(607,0,l),
(607,550,l),
(417,550,l),
(417,76,l,{
name = hr02;
}),
(270,76,l),
(270,550,l),
(80,550,l),
(80,-180,l)
);
}
);
width = 692;
}
);
unicode = 181;
},
{
glyphname = lozenge;
layers = (
{
layerId = master01;
shapes = (
{
closed = 1;
nodes = (
(233,600,l),
(50,243,l),
(212,-114,l),
(393,-114,l),
(576,243,l),
(414,600,l,{
name = hr00;
})
);
},
{
closed = 1;
nodes = (
(349,13,l),
(122,243,l),
(238,473,l),
(277,473,l),
(503,243,l),
(387,13,l)
);
}
);
width = 626;
}
);
unicode = 9674;
},
{
glyphname = commaaccentcomb;
lastChange = "2023-02-17 13:58:04 +0000";
layers = (
{
layerId = master01;
shapes = (
{
closed = 1;
nodes = (
(210,-47,o),
(196,-40,o),
(138,-40,cs),
(67,-40,o),
(50,-47,o),
(50,-119,cs),
(50,-176,o),
(70,-189,o),
(106,-189,c),
(93,-289,l),
(137,-295,l),
(187,-248,o),
(210,-187,o),
(210,-119,cs,{
name = hr00;
})
);
}
);
width = 260;
}
);
unicode = 806;
},
{
glyphname = commaaccentcomb.salt;
lastChange = "2023-02-17 13:58:04 +0000";
layers = (
{
layerId = master01;
shapes = (
{
closed = 1;
nodes = (
(72,591,o),
(86,584,o),
(144,584,cs),
(215,584,o),
(232,591,o),
(232,663,cs),
(232,720,o),
(212,733,o),
(176,733,c),
(189,833,l),
(145,839,l),
(95,792,o),
(72,731,o),
(72,663,cs,{
name = hr00;
})
);
}
);
width = 304;
}
);
},
{
glyphname = dieresis;
layers = (
{
layerId = master01;
shapes = (
{
closed = 1;
nodes = (
(184,757,o),
(172,765,o),
(121,765,cs),
(63,765,o),
(50,757,o),
(50,682,cs),
(50,607,o),
(63,599,o),
(121,599,cs),
(172,599,o),
(184,607,o),
(184,682,cs,{
name = hr00;
})
);
},
{
closed = 1;
nodes = (
(382,757,o),
(370,765,o),
(319,765,cs),
(261,765,o),
(248,757,o),
(248,682,cs),
(248,607,o),
(261,599,o),
(319,599,cs),
(370,599,o),
(382,607,o),
(382,682,cs)
);
}
);
width = 432;
}
);
unicode = 168;
},
{
glyphname = dotaccent;
layers = (
{
layerId = master01;
shapes = (
{
closed = 1;
nodes = (
(233,765,o),
(249,742,o),
(249,675,cs),
(249,608,o),
(233,584,o),
(152,584,cs),
(71,584,o),
(55,608,o),
(55,675,cs),
(55,742,o),
(71,765,o),
(152,765,cs,{
name = hr00;
})
);
}
);
width = 304;
}
);
unicode = 729;
},
{
glyphname = grave;
layers = (
{
layerId = master01;
shapes = (
{
closed = 1;
nodes = (
(0,645,l),
(227,586,l),
(260,678,l),
(49,780,l,{
name = hr00;
})
);
}
);
width = 311;
}
);
unicode = 96;
},
{
glyphname = acute;
layers = (
{
layerId = master01;
shapes = (
{
closed = 1;
nodes = (
(84,586,l),
(311,645,l),
(262,780,l),
(51,678,l,{
name = hr00;
})
);
}
);
width = 311;
}
);
unicode = 180;
},
{
glyphname = hungarumlaut;
layers = (
{
layerId = master01;
shapes = (
{
closed = 1;
nodes = (
(88,580,l),
(243,701,l),
(147,804,l),
(20,650,l,{
name = hr00;
})
);
},
{
closed = 1;
nodes = (
(320,580,l),
(475,701,l),
(379,804,l),
(252,650,l)
);
}
);
width = 495;
}
);
unicode = 733;
},
{
glyphname = circumflex;
layers = (
{
layerId = master01;
shapes = (
{
closed = 1;
nodes = (
(153,787,l),
(35,657,l),
(94,586,l),
(201,662,l),
(308,586,l),
(367,657,l),
(249,787,l,{
name = hr00;
})
);
}
);
width = 402;
}
);
unicode = 710;
},
{
glyphname = caron;
layers = (
{
layerId = master01;
shapes = (
{
closed = 1;
nodes = (
(308,788,l),
(201,712,l),
(94,788,l),
(35,717,l),
(153,587,l),
(249,587,l),
(367,717,l,{
name = hr00;
})
);
}
);
width = 402;
}
);
unicode = 711;
},
{
glyphname = breve;
layers = (
{
layerId = master01;
shapes = (
{
closed = 1;
nodes = (
(162,710,o),
(111,727,o),
(79,749,c),
(64,725,o),
(49,699,o),
(33,674,c),
(70,617,o),
(129,588,o),
(199,588,cs),
(269,588,o),
(328,617,o),
(365,674,c),
(347,703,o),
(338,719,o),
(319,749,c),
(287,727,o),
(236,710,o),
(199,710,cs,{
name = hr00;
})
);
}
);
width = 402;
}
);
unicode = 728;
},
{
glyphname = ring;
layers = (
{
layerId = master01;
shapes = (
{
closed = 1;
nodes = (
(80,790,o),
(60,759,o),
(60,675,cs),
(60,591,o),
(80,560,o),
(182,560,cs),
(284,560,o),
(304,591,o),
(304,675,cs),
(304,759,o),
(284,790,o),
(182,790,cs,{
name = hr00;
})
);
},
{
closed = 1;
nodes = (
(217,718,o),
(223,714,o),
(223,675,cs),
(223,634,o),
(217,632,o),
(182,632,cs),
(147,632,o),
(141,634,o),
(141,675,cs),
(141,714,o),
(147,718,o),
(182,718,cs)
);
}
);
width = 364;
}
);
unicode = 730;
},
{
glyphname = tilde;
layers = (
{
layerId = master01;
shapes = (
{
closed = 1;
nodes = (
(305,755,l),
(277,703,l),
(265,703,l),
(239,742,o),
(202,765,o),
(152,765,cs),
(95,765,o),
(48,736,o),
(35,663,cs),
(25,606,l),
(97,593,l),
(125,644,l),
(137,644,l),
(163,606,o),
(200,583,o),
(249,583,cs),
(307,583,o),
(353,611,o),
(367,684,cs),
(378,741,l,{
name = hr00;
})
);
}
);
width = 403;
}
);
unicode = 732;
},
{
glyphname = macron;
layers = (
{
layerId = master01;
shapes = (
{
closed = 1;
nodes = (
(332,610,l),
(332,734,l),
(40,734,l),
(40,610,l,{
name = hr00;
})
);
}
);
width = 372;
}
);
unicode = 175;
},
{
glyphname = cedilla;
layers = (
{
layerId = master01;
shapes = (
{
closed = 1;
nodes = (
(236,-4,o),
(176,6,o),
(133,6,c),
(133,-104,l),
(106,-104,l),
(72,-52,l),
(20,-52,l),
(13,-149,l),
(42,-157,o),
(82,-165,o),
(125,-165,cs),
(177,-165,o),
(236,-146,o),
(236,-76,cs,{
name = hr00;
})
);
}
);
width = 249;
}
);
unicode = 184;
},
{
glyphname = ogonek;
layers = (
{
layerId = master01;
shapes = (
{
closed = 1;
nodes = (
(23,-141,o),
(63,-165,o),
(115,-165,cs),
(162,-165,o),
(214,-137,o),
(240,-110,c),
(230,-53,l),
(214,-63,o),
(189,-72,o),
(168,-72,cs),
(149,-72,o),
(133,-61,o),
(133,-40,cs),
(133,-14,o),
(149,5,o),
(193,11,c),
(193,38,l),
(85,22,o),
(23,-17,o),
(23,-87,cs,{
name = hr00;
})
);
}
);
width = 249;
}
);
unicode = 731;
},
{
glyphname = dieresis.case;
lastChange = "2023-02-17 13:58:04 +0000";
layers = (
{
layerId = master01;
shapes = (
{
closed = 1;
nodes = (
(184,842,o),
(172,850,o),
(121,850,cs),
(63,850,o),
(50,842,o),
(50,767,cs),
(50,692,o),
(63,684,o),
(121,684,cs),
(172,684,o),
(184,692,o),
(184,767,cs,{
name = hr00;
})
);
},
{
closed = 1;
nodes = (
(382,842,o),
(370,850,o),
(319,850,cs),
(261,850,o),
(248,842,o),
(248,767,cs),
(248,692,o),
(261,684,o),
(319,684,cs),
(370,684,o),
(382,692,o),
(382,767,cs)
);
}
);
width = 432;
}
);
},
{
glyphname = dotaccent.case;
lastChange = "2023-02-17 13:58:04 +0000";
layers = (
{
layerId = master01;
shapes = (
{
closed = 1;
nodes = (
(233,850,o),
(249,827,o),
(249,760,cs),
(249,693,o),
(233,669,o),
(152,669,cs),
(71,669,o),
(55,693,o),
(55,760,cs),
(55,827,o),
(71,850,o),
(152,850,cs,{
name = hr00;
})
);
}
);
width = 304;
}
);
},
{
glyphname = grave.case;
lastChange = "2023-02-17 13:58:04 +0000";
layers = (
{
layerId = master01;
shapes = (
{
closed = 1;
nodes = (
(0,730,l),
(227,671,l),
(260,763,l),
(49,865,l,{
name = hr00;
})
);
}
);
width = 311;
}
);
},
{
glyphname = acute.case;
lastChange = "2023-02-17 13:58:04 +0000";
layers = (
{
layerId = master01;
shapes = (
{
closed = 1;
nodes = (
(84,671,l),
(311,730,l),
(262,865,l),
(51,763,l,{
name = hr00;
})
);
}
);
width = 311;
}
);
},
{
glyphname = hungarumlaut.case;
lastChange = "2023-02-17 13:58:04 +0000";
layers = (
{
layerId = master01;
shapes = (
{
closed = 1;
nodes = (
(88,665,l),
(243,786,l),
(147,889,l),
(20,735,l,{
name = hr00;
})
);
},
{
closed = 1;
nodes = (
(320,665,l),
(475,786,l),
(379,889,l),
(252,735,l)
);
}
);
width = 495;
}
);
},
{
glyphname = circumflex.case;
lastChange = "2023-02-17 13:58:04 +0000";
layers = (
{
layerId = master01;
shapes = (
{
closed = 1;
nodes = (
(153,872,l),
(35,742,l),
(94,671,l),
(201,747,l),
(308,671,l),
(367,742,l),
(249,872,l,{
name = hr00;
})
);
}
);
width = 402;
}
);
},
{
glyphname = caron.case;
lastChange = "2023-02-17 13:58:04 +0000";
layers = (
{
layerId = master01;
shapes = (
{
closed = 1;
nodes = (
(308,873,l),
(201,797,l),
(94,873,l),
(35,802,l),
(153,672,l),
(249,672,l),
(367,802,l,{
name = hr00;
})
);
}
);
width = 402;
}
);
},
{
glyphname = breve.case;
lastChange = "2023-02-17 13:58:04 +0000";
layers = (
{
layerId = master01;
shapes = (
{
closed = 1;
nodes = (
(162,795,o),
(111,812,o),
(79,834,c),
(64,810,o),
(49,784,o),
(33,759,c),
(70,702,o),
(129,673,o),
(199,673,cs),
(269,673,o),
(328,702,o),
(365,759,c),
(347,788,o),
(338,804,o),
(319,834,c),
(287,812,o),
(236,795,o),
(199,795,cs,{
name = hr00;
})
);
}
);
width = 402;
}
);
},
{
glyphname = ring.case;
lastChange = "2023-02-17 13:58:04 +0000";
layers = (
{
layerId = master01;
shapes = (
{
closed = 1;
nodes = (
(80,875,o),
(60,844,o),
(60,760,cs),
(60,676,o),
(80,645,o),
(182,645,cs),
(284,645,o),
(304,676,o),
(304,760,cs),
(304,844,o),
(284,875,o),
(182,875,cs,{
name = hr00;
})
);
},
{
closed = 1;
nodes = (
(217,803,o),
(223,799,o),
(223,760,cs),
(223,719,o),
(217,717,o),
(182,717,cs),
(147,717,o),
(141,719,o),
(141,760,cs),
(141,799,o),
(147,803,o),
(182,803,cs)
);
}
);
width = 364;
}
);
},
{
glyphname = tilde.case;
lastChange = "2023-02-17 13:58:04 +0000";
layers = (
{
layerId = master01;
shapes = (
{
closed = 1;
nodes = (
(305,840,l),
(277,788,l),
(265,788,l),
(239,827,o),
(202,850,o),
(152,850,cs),
(95,850,o),
(48,821,o),
(35,748,cs),
(25,691,l),
(97,678,l),
(125,729,l),
(137,729,l),
(163,691,o),
(200,668,o),
(249,668,cs),
(307,668,o),
(353,696,o),
(367,769,cs),
(378,826,l,{
name = hr00;
})
);
}
);
width = 403;
}
);
},
{
glyphname = macron.case;
lastChange = "2023-02-17 13:58:04 +0000";
layers = (
{
layerId = master01;
shapes = (
{
closed = 1;
nodes = (
(332,695,l),
(332,819,l),
(40,819,l),
(40,695,l,{
name = hr00;
})
);
}
);
width = 372;
}
);
},
{
glyphname = caron.salt;
lastChange = "2023-02-17 13:58:04 +0000";
layers = (
{
layerId = master01;
shapes = (
{
closed = 1;
nodes = (
(160,771,o),
(146,778,o),
(88,778,cs),
(17,778,o),
(0,771,o),
(0,699,cs),
(0,642,o),
(20,629,o),
(56,629,c),
(43,529,l),
(87,523,l),
(137,570,o),
(160,631,o),
(160,699,cs,{
name = hr00;
})
);
}
);
width = 160;
}
);
},
{
glyphname = barra;
lastChange = "2023-02-17 13:58:04 +0000";
layers = (
{
layerId = master01;
shapes = (
{
closed = 1;
nodes = (
(336,286,l),
(336,348,l),
(0,348,l),
(0,286,l)
);
}
);
width = 336;
}
);
},
{
glyphname = ringacute;
lastChange = "2023-02-17 13:58:04 +0000";
layers = (
{
layerId = master01;
shapes = (
{
closed = 1;
nodes = (
(80,790,o),
(60,759,o),
(60,675,cs),
(60,591,o),
(80,560,o),
(182,560,cs),
(284,560,o),
(304,591,o),
(304,675,cs),
(304,699,o),
(302,718,o),
(297,734,c),
(361,751,l),
(317,873,l),
(182,790,l,{
name = hr00;
})
);
},
{
closed = 1;
nodes = (
(217,718,o),
(223,714,o),
(223,675,cs),
(223,634,o),
(217,632,o),
(182,632,cs),
(147,632,o),
(141,634,o),
(141,675,cs),
(141,714,o),
(147,718,o),
(182,718,cs)
);
}
);
width = 364;
}
);
},
{
glyphname = ringacute.case;
lastChange = "2023-02-17 13:58:04 +0000";
layers = (
{
layerId = master01;
shapes = (
{
closed = 1;
nodes = (
(80,875,o),
(60,844,o),
(60,760,cs),
(60,676,o),
(80,645,o),
(182,645,cs),
(284,645,o),
(304,676,o),
(304,760,cs),
(304,784,o),
(302,803,o),
(297,819,c),
(361,836,l),
(317,958,l),
(182,875,l,{
name = hr00;
})
);
},
{
closed = 1;
nodes = (
(217,803,o),
(223,799,o),
(223,760,cs),
(223,719,o),
(217,717,o),
(182,717,cs),
(147,717,o),
(141,719,o),
(141,760,cs),
(141,799,o),
(147,803,o),
(182,803,cs)
);
}
